G04 #@! TF.FileFunction,Copper,L2,Bot,Mixed*
%FSLAX46Y46*%
G04 Gerber Fmt 4.6, Leading zero omitted, Abs format (unit mm)*
G04 Created by KiCad (PCBNEW no-vcs-found-product) date Sat 05 Dec 2015 15:20:37 CET*
%MOMM*%
G01*
G04 APERTURE LIST*
%ADD10C,0.150000*%
%ADD11C,0.304800*%
%ADD12R,1.300000X1.800000*%
%ADD13O,1.300000X1.800000*%
%ADD14O,1.500000X2.000000*%
%ADD15R,1.500000X2.000000*%
%ADD16R,0.599440X1.800860*%
%ADD17C,1.524000*%
%ADD18R,2.000000X2.000000*%
%ADD19C,2.000000*%
%ADD20C,1.397000*%
%ADD21C,0.889000*%
%ADD22C,0.400000*%
%ADD23C,0.398780*%
%ADD24C,0.203200*%
G04 APERTURE END LIST*
D10*
D11*
X121077143Y-120064571D02*
X120714286Y-121419238D01*
X120351428Y-120064571D01*
X118972571Y-121419238D02*
X119843428Y-121419238D01*
X119408000Y-121419238D02*
X119408000Y-119387238D01*
X119553143Y-119677524D01*
X119698285Y-119871048D01*
X119843428Y-119967810D01*
X118319428Y-121225714D02*
X118246856Y-121322476D01*
X118319428Y-121419238D01*
X118391999Y-121322476D01*
X118319428Y-121225714D01*
X118319428Y-121419238D01*
X117303428Y-119387238D02*
X117158285Y-119387238D01*
X117013142Y-119484000D01*
X116940571Y-119580762D01*
X116868000Y-119774286D01*
X116795428Y-120161333D01*
X116795428Y-120645143D01*
X116868000Y-121032190D01*
X116940571Y-121225714D01*
X117013142Y-121322476D01*
X117158285Y-121419238D01*
X117303428Y-121419238D01*
X117448571Y-121322476D01*
X117521142Y-121225714D01*
X117593714Y-121032190D01*
X117666285Y-120645143D01*
X117666285Y-120161333D01*
X117593714Y-119774286D01*
X117521142Y-119580762D01*
X117448571Y-119484000D01*
X117303428Y-119387238D01*
X133690858Y-62219238D02*
X133690858Y-60864571D01*
X133690858Y-61058095D02*
X133618286Y-60961333D01*
X133473144Y-60864571D01*
X133255429Y-60864571D01*
X133110286Y-60961333D01*
X133037715Y-61154857D01*
X133037715Y-62219238D01*
X133037715Y-61154857D02*
X132965144Y-60961333D01*
X132820001Y-60864571D01*
X132602286Y-60864571D01*
X132457144Y-60961333D01*
X132384572Y-61154857D01*
X132384572Y-62219238D01*
X131005715Y-62219238D02*
X131005715Y-61154857D01*
X131078286Y-60961333D01*
X131223429Y-60864571D01*
X131513715Y-60864571D01*
X131658858Y-60961333D01*
X131005715Y-62122476D02*
X131150858Y-62219238D01*
X131513715Y-62219238D01*
X131658858Y-62122476D01*
X131731429Y-61928952D01*
X131731429Y-61735429D01*
X131658858Y-61541905D01*
X131513715Y-61445143D01*
X131150858Y-61445143D01*
X131005715Y-61348381D01*
X130280001Y-62219238D02*
X130280001Y-60864571D01*
X130280001Y-61251619D02*
X130207429Y-61058095D01*
X130134858Y-60961333D01*
X129989715Y-60864571D01*
X129844572Y-60864571D01*
X128683429Y-62122476D02*
X128828572Y-62219238D01*
X129118858Y-62219238D01*
X129264000Y-62122476D01*
X129336572Y-62025714D01*
X129409143Y-61832190D01*
X129409143Y-61251619D01*
X129336572Y-61058095D01*
X129264000Y-60961333D01*
X129118858Y-60864571D01*
X128828572Y-60864571D01*
X128683429Y-60961333D01*
X127377143Y-60864571D02*
X127377143Y-62219238D01*
X128030286Y-60864571D02*
X128030286Y-61928952D01*
X127957714Y-62122476D01*
X127812572Y-62219238D01*
X127594857Y-62219238D01*
X127449714Y-62122476D01*
X127377143Y-62025714D01*
X126724000Y-62122476D02*
X126578857Y-62219238D01*
X126288572Y-62219238D01*
X126143429Y-62122476D01*
X126070857Y-61928952D01*
X126070857Y-61832190D01*
X126143429Y-61638667D01*
X126288572Y-61541905D01*
X126506286Y-61541905D01*
X126651429Y-61445143D01*
X126724000Y-61251619D01*
X126724000Y-61154857D01*
X126651429Y-60961333D01*
X126506286Y-60864571D01*
X126288572Y-60864571D01*
X126143429Y-60961333D01*
X125780572Y-62412762D02*
X124619429Y-62412762D01*
X123603429Y-62122476D02*
X123748572Y-62219238D01*
X124038858Y-62219238D01*
X124184000Y-62122476D01*
X124256572Y-62025714D01*
X124329143Y-61832190D01*
X124329143Y-61251619D01*
X124256572Y-61058095D01*
X124184000Y-60961333D01*
X124038858Y-60864571D01*
X123748572Y-60864571D01*
X123603429Y-60961333D01*
X121861714Y-60380762D02*
X121789143Y-60284000D01*
X121644000Y-60187238D01*
X121281143Y-60187238D01*
X121136000Y-60284000D01*
X121063429Y-60380762D01*
X120990857Y-60574286D01*
X120990857Y-60767810D01*
X121063429Y-61058095D01*
X121934286Y-62219238D01*
X120990857Y-62219238D01*
X120047428Y-60187238D02*
X119902285Y-60187238D01*
X119757142Y-60284000D01*
X119684571Y-60380762D01*
X119612000Y-60574286D01*
X119539428Y-60961333D01*
X119539428Y-61445143D01*
X119612000Y-61832190D01*
X119684571Y-62025714D01*
X119757142Y-62122476D01*
X119902285Y-62219238D01*
X120047428Y-62219238D01*
X120192571Y-62122476D01*
X120265142Y-62025714D01*
X120337714Y-61832190D01*
X120410285Y-61445143D01*
X120410285Y-60961333D01*
X120337714Y-60574286D01*
X120265142Y-60380762D01*
X120192571Y-60284000D01*
X120047428Y-60187238D01*
X118087999Y-62219238D02*
X118958856Y-62219238D01*
X118523428Y-62219238D02*
X118523428Y-60187238D01*
X118668571Y-60477524D01*
X118813713Y-60671048D01*
X118958856Y-60767810D01*
X116709142Y-60187238D02*
X117434856Y-60187238D01*
X117507427Y-61154857D01*
X117434856Y-61058095D01*
X117289713Y-60961333D01*
X116926856Y-60961333D01*
X116781713Y-61058095D01*
X116709142Y-61154857D01*
X116636570Y-61348381D01*
X116636570Y-61832190D01*
X116709142Y-62025714D01*
X116781713Y-62122476D01*
X116926856Y-62219238D01*
X117289713Y-62219238D01*
X117434856Y-62122476D01*
X117507427Y-62025714D01*
D12*
X177900000Y-112250000D03*
D13*
X177900000Y-114750000D03*
X175900000Y-112250000D03*
X175900000Y-114750000D03*
X173900000Y-112250000D03*
X173900000Y-114750000D03*
X171900000Y-112250000D03*
X171900000Y-114750000D03*
X169900000Y-112250000D03*
X169900000Y-114750000D03*
X167900000Y-112250000D03*
X167900000Y-114750000D03*
X165900000Y-112250000D03*
X165900000Y-114750000D03*
X163900000Y-112250000D03*
X163900000Y-114750000D03*
X161900000Y-112250000D03*
X161900000Y-114750000D03*
X159900000Y-112250000D03*
X159900000Y-114750000D03*
X157900000Y-112250000D03*
X157900000Y-114750000D03*
X155900000Y-112250000D03*
X155900000Y-114750000D03*
X153900000Y-112250000D03*
X153900000Y-114750000D03*
X151900000Y-112250000D03*
X151900000Y-114750000D03*
X149900000Y-112250000D03*
X149900000Y-114750000D03*
X147900000Y-112250000D03*
X147900000Y-114750000D03*
X145900000Y-112250000D03*
X145900000Y-114750000D03*
X143900000Y-112250000D03*
X143900000Y-114750000D03*
X141900000Y-112250000D03*
X141900000Y-114750000D03*
X139900000Y-112250000D03*
X139900000Y-114750000D03*
X137900000Y-112250000D03*
X137900000Y-114750000D03*
X135900000Y-112250000D03*
X135900000Y-114750000D03*
D14*
X129680000Y-88520000D03*
X129680000Y-85480000D03*
X127140000Y-85480000D03*
X127140000Y-88520000D03*
X124600000Y-88520000D03*
X124600000Y-85480000D03*
X119520000Y-85480000D03*
X119520000Y-88520000D03*
X122060000Y-88520000D03*
X122060000Y-85480000D03*
X134760000Y-85480000D03*
X134760000Y-88520000D03*
X132220000Y-88520000D03*
X132220000Y-85480000D03*
X137300000Y-85480000D03*
X137300000Y-88520000D03*
X139840000Y-88520000D03*
X139840000Y-85480000D03*
X142380000Y-85480000D03*
X142380000Y-88520000D03*
X147460000Y-85480000D03*
X147460000Y-88520000D03*
X144920000Y-88520000D03*
X144920000Y-85480000D03*
X150000000Y-85480000D03*
X150000000Y-88520000D03*
X152540000Y-88520000D03*
X152540000Y-85480000D03*
X155080000Y-85480000D03*
X155080000Y-88520000D03*
X157620000Y-88520000D03*
X157620000Y-85480000D03*
X160160000Y-85480000D03*
X160160000Y-88520000D03*
X162700000Y-88520000D03*
X162700000Y-85480000D03*
X165240000Y-85480000D03*
X165240000Y-88520000D03*
X167780000Y-88520000D03*
X167780000Y-85480000D03*
X170320000Y-85480000D03*
X170320000Y-88520000D03*
X172860000Y-88520000D03*
X172860000Y-85480000D03*
D15*
X180480000Y-85480000D03*
D14*
X180480000Y-88520000D03*
X177940000Y-85480000D03*
X177940000Y-88520000D03*
X175400000Y-85480000D03*
X175400000Y-88520000D03*
D16*
X179998960Y-64099420D03*
X178998200Y-64101960D03*
X177997440Y-64101960D03*
X176999220Y-64101960D03*
X175998460Y-64101960D03*
X174997700Y-64101960D03*
X173999480Y-64101960D03*
X172998720Y-64101960D03*
X171997960Y-64101960D03*
X170999740Y-64101960D03*
X169998980Y-64101960D03*
X168998220Y-64101960D03*
X167997460Y-64101960D03*
X166999240Y-64101960D03*
X165998480Y-64101960D03*
X164997720Y-64101960D03*
X163999500Y-64101960D03*
X162998740Y-64101960D03*
X161997980Y-64101960D03*
X160999760Y-64101960D03*
X159999000Y-64101960D03*
X158998240Y-64101960D03*
X157997480Y-64101960D03*
X156999260Y-64101960D03*
X155998500Y-64101960D03*
X179998960Y-59898040D03*
X179000740Y-59898040D03*
X177999980Y-59898040D03*
X176999220Y-59898040D03*
X176001000Y-59898040D03*
X175000240Y-59898040D03*
X173999480Y-59898040D03*
X173001260Y-59898040D03*
X172000500Y-59898040D03*
X170999740Y-59898040D03*
X169998980Y-59898040D03*
X169000760Y-59898040D03*
X168000000Y-59898040D03*
X166999240Y-59898040D03*
X166001020Y-59898040D03*
X165000260Y-59898040D03*
X163999500Y-59898040D03*
X162998740Y-59898040D03*
X162000520Y-59898040D03*
X160999760Y-59898040D03*
X159999000Y-59898040D03*
X159000780Y-59898040D03*
X158000020Y-59898040D03*
X156999260Y-59898040D03*
X156001040Y-59898040D03*
D17*
X127200000Y-114800000D03*
X134600000Y-119300000D03*
D18*
X122300000Y-104900000D03*
D19*
X124840000Y-104900000D03*
D20*
X122300000Y-112470000D03*
X122300000Y-109930000D03*
D21*
X178700000Y-92000000D03*
X178000000Y-57900000D03*
X177000000Y-61700000D03*
X179000000Y-61700000D03*
X173000000Y-57900000D03*
X180000000Y-57900000D03*
X146400000Y-59900000D03*
X171600000Y-103000000D03*
X166500000Y-100200000D03*
X158900000Y-99100000D03*
X153800000Y-96300000D03*
X157000000Y-57400000D03*
X170300000Y-100400000D03*
X176000000Y-62400000D03*
X175000000Y-61700000D03*
X165200000Y-98000000D03*
X174000000Y-62400000D03*
X172000000Y-62400000D03*
X157600000Y-96700000D03*
X171000000Y-61700000D03*
X170000000Y-62400000D03*
X152600000Y-94400000D03*
X169000000Y-61700000D03*
X168000000Y-62400000D03*
X167000000Y-61700000D03*
X166000000Y-62400000D03*
X165000000Y-61700000D03*
X164000000Y-62400000D03*
X163000000Y-61700000D03*
X162000000Y-62400000D03*
X132200000Y-102700000D03*
X161000000Y-61700000D03*
X160000000Y-62400000D03*
X159000000Y-61700000D03*
X158000000Y-62400000D03*
D22*
X137900000Y-117400000D02*
X136000000Y-119300000D01*
X136000000Y-119300000D02*
X134600000Y-119300000D01*
X180500000Y-96400000D02*
X178700000Y-94600000D01*
X137900000Y-117400000D02*
X139800000Y-119300000D01*
X139800000Y-119300000D02*
X179200000Y-119300000D01*
X179200000Y-119300000D02*
X180500000Y-118000000D01*
X180500000Y-118000000D02*
X180500000Y-96400000D01*
X137900000Y-117400000D02*
X137900000Y-114500000D01*
X178700000Y-94600000D02*
X178700000Y-92000000D01*
D23*
X177999980Y-59898040D02*
X177999980Y-57900020D01*
X177999980Y-57900020D02*
X178000000Y-57900000D01*
X139900000Y-112500000D02*
X139900000Y-109100000D01*
X135700000Y-104900000D02*
X124840000Y-104900000D01*
X139900000Y-109100000D02*
X135700000Y-104900000D01*
D24*
X172860000Y-88270000D02*
X172860000Y-96160000D01*
X173900000Y-97200000D02*
X173900000Y-112500000D01*
X172860000Y-96160000D02*
X173900000Y-97200000D01*
X177000000Y-61700000D02*
X177000000Y-59898820D01*
X177000000Y-59898820D02*
X176999220Y-59898040D01*
X172860000Y-85730000D02*
X172860000Y-85760000D01*
X172860000Y-85760000D02*
X174100000Y-87000000D01*
X175900000Y-97000000D02*
X175900000Y-112500000D01*
X174100000Y-95200000D02*
X175900000Y-97000000D01*
X174100000Y-87000000D02*
X174100000Y-95200000D01*
X172860000Y-85730000D02*
X172770000Y-85730000D01*
X172860000Y-85730000D02*
X172860000Y-77640000D01*
X176999220Y-73500780D02*
X176999220Y-64101960D01*
X172860000Y-77640000D02*
X176999220Y-73500780D01*
X177900000Y-96600000D02*
X177900000Y-112500000D01*
X176700000Y-95400000D02*
X177900000Y-96600000D01*
X177940000Y-85730000D02*
X177940000Y-85760000D01*
X177940000Y-85760000D02*
X176700000Y-87000000D01*
X176700000Y-87000000D02*
X176700000Y-95400000D01*
X177940000Y-85730000D02*
X177870000Y-85730000D01*
X177940000Y-85730000D02*
X177940000Y-77560000D01*
X178998200Y-76501800D02*
X178998200Y-64101960D01*
X177940000Y-77560000D02*
X178998200Y-76501800D01*
X179000740Y-61699260D02*
X179000740Y-59898040D01*
X179000000Y-61700000D02*
X179000740Y-61699260D01*
D23*
X173001260Y-59898040D02*
X173001260Y-57901260D01*
X173001260Y-57901260D02*
X173000000Y-57900000D01*
D22*
X122300000Y-104900000D02*
X122300000Y-109930000D01*
D23*
X180480000Y-85730000D02*
X180480000Y-68080000D01*
X179998960Y-67598960D02*
X179998960Y-64099420D01*
X180480000Y-68080000D02*
X179998960Y-67598960D01*
X175400000Y-85730000D02*
X175400000Y-77700000D01*
X177997440Y-75102560D02*
X177997440Y-64101960D01*
X175400000Y-77700000D02*
X177997440Y-75102560D01*
X162700000Y-85730000D02*
X162700000Y-81400000D01*
X172998720Y-71101280D02*
X172998720Y-64101960D01*
X162700000Y-81400000D02*
X172998720Y-71101280D01*
D22*
X127200000Y-114800000D02*
X124330000Y-114800000D01*
X180480000Y-88270000D02*
X180480000Y-90880000D01*
X124330000Y-117230000D02*
X124330000Y-114800000D01*
X124330000Y-114800000D02*
X124330000Y-112470000D01*
X128200000Y-121100000D02*
X124330000Y-117230000D01*
X180600000Y-121100000D02*
X128200000Y-121100000D01*
X182700000Y-119000000D02*
X180600000Y-121100000D01*
X182700000Y-93100000D02*
X182700000Y-119000000D01*
X180480000Y-90880000D02*
X182700000Y-93100000D01*
X137900000Y-112500000D02*
X137900000Y-109400000D01*
X137900000Y-109400000D02*
X135400000Y-106900000D01*
X135400000Y-106900000D02*
X127100000Y-106900000D01*
X127100000Y-106900000D02*
X125100000Y-108900000D01*
X125100000Y-108900000D02*
X125100000Y-111700000D01*
X125100000Y-111700000D02*
X124330000Y-112470000D01*
X124330000Y-112470000D02*
X122300000Y-112470000D01*
D23*
X179998960Y-59898040D02*
X179998960Y-57901040D01*
X179998960Y-57901040D02*
X180000000Y-57900000D01*
X156001040Y-59898040D02*
X146401960Y-59898040D01*
X146401960Y-59898040D02*
X146400000Y-59900000D01*
D24*
X171600000Y-103000000D02*
X171600000Y-101000000D01*
X171600000Y-101000000D02*
X171600000Y-87010000D01*
X170320000Y-85730000D02*
X171600000Y-87010000D01*
X170320000Y-85730000D02*
X170320000Y-78680000D01*
X175998460Y-73001540D02*
X175998460Y-64101960D01*
X170320000Y-78680000D02*
X175998460Y-73001540D01*
X171900000Y-112500000D02*
X171900000Y-105200000D01*
X169100000Y-87050000D02*
X167780000Y-85730000D01*
X169100000Y-102400000D02*
X169100000Y-87050000D01*
X171900000Y-105200000D02*
X169100000Y-102400000D01*
X167780000Y-85730000D02*
X167780000Y-79820000D01*
X174997700Y-72602300D02*
X174997700Y-64101960D01*
X167780000Y-79820000D02*
X174997700Y-72602300D01*
X166500000Y-100200000D02*
X166500000Y-87000000D01*
X165240000Y-85740000D02*
X166500000Y-87000000D01*
X165240000Y-85740000D02*
X165240000Y-85730000D01*
X165240000Y-85730000D02*
X165240000Y-81160000D01*
X173999480Y-72400520D02*
X173999480Y-64101960D01*
X165240000Y-81160000D02*
X173999480Y-72400520D01*
X167900000Y-112500000D02*
X167900000Y-105700000D01*
X161400000Y-86970000D02*
X160160000Y-85730000D01*
X161400000Y-99200000D02*
X161400000Y-86970000D01*
X167900000Y-105700000D02*
X161400000Y-99200000D01*
X160160000Y-85730000D02*
X160160000Y-81540000D01*
X171997960Y-69702040D02*
X171997960Y-64101960D01*
X160160000Y-81540000D02*
X171997960Y-69702040D01*
X157620000Y-85730000D02*
X158900000Y-87010000D01*
X158900000Y-99100000D02*
X158900000Y-87010000D01*
X157620000Y-85730000D02*
X157620000Y-82680000D01*
X170999740Y-69300260D02*
X170999740Y-64101960D01*
X157620000Y-82680000D02*
X170999740Y-69300260D01*
X157620000Y-85730000D02*
X157620000Y-84680000D01*
X163900000Y-112500000D02*
X163900000Y-106000000D01*
X156300000Y-86950000D02*
X155080000Y-85730000D01*
X156300000Y-98400000D02*
X156300000Y-86950000D01*
X163900000Y-106000000D02*
X156300000Y-98400000D01*
X155080000Y-85730000D02*
X155080000Y-81720000D01*
X169998980Y-69001020D02*
X169998980Y-64101960D01*
X161800000Y-77200000D02*
X169998980Y-69001020D01*
X159600000Y-77200000D02*
X161800000Y-77200000D01*
X155080000Y-81720000D02*
X159600000Y-77200000D01*
X153800000Y-96300000D02*
X153800000Y-87000000D01*
X152540000Y-85740000D02*
X153800000Y-87000000D01*
X152540000Y-85740000D02*
X152540000Y-85730000D01*
X152540000Y-85730000D02*
X152540000Y-81860000D01*
X168998220Y-68801780D02*
X168998220Y-64101960D01*
X161400000Y-76400000D02*
X168998220Y-68801780D01*
X158000000Y-76400000D02*
X161400000Y-76400000D01*
X152540000Y-81860000D02*
X158000000Y-76400000D01*
X150000000Y-85730000D02*
X150000000Y-82600000D01*
X167997460Y-68602540D02*
X167997460Y-64101960D01*
X161000000Y-75600000D02*
X167997460Y-68602540D01*
X157000000Y-75600000D02*
X161000000Y-75600000D01*
X150000000Y-82600000D02*
X157000000Y-75600000D01*
X157900000Y-112500000D02*
X157900000Y-104600000D01*
X148700000Y-86970000D02*
X147460000Y-85730000D01*
X148700000Y-95400000D02*
X148700000Y-86970000D01*
X157900000Y-104600000D02*
X148700000Y-95400000D01*
X147460000Y-85730000D02*
X147460000Y-82740000D01*
X166999240Y-68400760D02*
X166999240Y-64101960D01*
X160600000Y-74800000D02*
X166999240Y-68400760D01*
X155400000Y-74800000D02*
X160600000Y-74800000D01*
X147460000Y-82740000D02*
X155400000Y-74800000D01*
X153900000Y-112500000D02*
X153900000Y-105600000D01*
X146200000Y-87010000D02*
X144920000Y-85730000D01*
X146200000Y-97900000D02*
X146200000Y-87010000D01*
X153900000Y-105600000D02*
X146200000Y-97900000D01*
X144920000Y-85730000D02*
X144920000Y-82780000D01*
X165998480Y-68301520D02*
X165998480Y-64101960D01*
X160300000Y-74000000D02*
X165998480Y-68301520D01*
X153700000Y-74000000D02*
X160300000Y-74000000D01*
X144920000Y-82780000D02*
X153700000Y-74000000D01*
D23*
X122060000Y-85730000D02*
X122060000Y-82840000D01*
X156999260Y-66200740D02*
X156999260Y-64101960D01*
X156400000Y-66800000D02*
X156999260Y-66200740D01*
X138100000Y-66800000D02*
X156400000Y-66800000D01*
X122060000Y-82840000D02*
X138100000Y-66800000D01*
X155998500Y-64101960D02*
X155998500Y-65701500D01*
X119520000Y-82980000D02*
X119520000Y-85730000D01*
X136500000Y-66000000D02*
X119520000Y-82980000D01*
X155700000Y-66000000D02*
X136500000Y-66000000D01*
X155998500Y-65701500D02*
X155700000Y-66000000D01*
X139900000Y-114500000D02*
X139900000Y-116400000D01*
X149900000Y-116600000D02*
X149900000Y-114500000D01*
X149000000Y-117500000D02*
X149900000Y-116600000D01*
X141000000Y-117500000D02*
X149000000Y-117500000D01*
X139900000Y-116400000D02*
X141000000Y-117500000D01*
X177900000Y-114500000D02*
X177900000Y-117100000D01*
X157900000Y-116300000D02*
X157900000Y-114500000D01*
X159100000Y-117500000D02*
X157900000Y-116300000D01*
X177500000Y-117500000D02*
X159100000Y-117500000D01*
X177900000Y-117100000D02*
X177500000Y-117500000D01*
X149900000Y-114500000D02*
X151900000Y-114500000D01*
X151900000Y-114500000D02*
X153900000Y-114500000D01*
X153900000Y-114500000D02*
X155900000Y-114500000D01*
X155900000Y-114500000D02*
X157900000Y-114500000D01*
X159900000Y-112500000D02*
X157900000Y-114500000D01*
X156999260Y-59898040D02*
X156999260Y-57400740D01*
X156999260Y-57400740D02*
X157000000Y-57400000D01*
D24*
X149900000Y-112500000D02*
X149900000Y-106400000D01*
X143600000Y-86950000D02*
X142380000Y-85730000D01*
X143600000Y-100100000D02*
X143600000Y-86950000D01*
X149900000Y-106400000D02*
X143600000Y-100100000D01*
X142380000Y-85730000D02*
X142380000Y-82420000D01*
X164997720Y-68106840D02*
X164997720Y-64101960D01*
X159904560Y-73200000D02*
X164997720Y-68106840D01*
X151600000Y-73200000D02*
X159904560Y-73200000D01*
X142380000Y-82420000D02*
X151600000Y-73200000D01*
X139840000Y-85730000D02*
X139840000Y-82560000D01*
X163999500Y-67900500D02*
X163999500Y-64101960D01*
X159500000Y-72400000D02*
X163999500Y-67900500D01*
X150000000Y-72400000D02*
X159500000Y-72400000D01*
X139840000Y-82560000D02*
X150000000Y-72400000D01*
X137300000Y-85730000D02*
X137300000Y-83100000D01*
X162998740Y-67801260D02*
X162998740Y-64101960D01*
X159200000Y-71600000D02*
X162998740Y-67801260D01*
X148800000Y-71600000D02*
X159200000Y-71600000D01*
X137300000Y-83100000D02*
X148800000Y-71600000D01*
X143900000Y-112500000D02*
X143900000Y-108000000D01*
X136000000Y-86970000D02*
X134760000Y-85730000D01*
X136000000Y-100100000D02*
X136000000Y-86970000D01*
X143900000Y-108000000D02*
X136000000Y-100100000D01*
X134760000Y-85730000D02*
X134760000Y-83440000D01*
X161997980Y-67502020D02*
X161997980Y-64101960D01*
X158700000Y-70800000D02*
X161997980Y-67502020D01*
X147400000Y-70800000D02*
X158700000Y-70800000D01*
X134760000Y-83440000D02*
X147400000Y-70800000D01*
X141900000Y-112500000D02*
X141900000Y-108400000D01*
X133500000Y-87010000D02*
X132220000Y-85730000D01*
X133500000Y-100000000D02*
X133500000Y-87010000D01*
X141900000Y-108400000D02*
X133500000Y-100000000D01*
X132220000Y-85730000D02*
X132220000Y-83580000D01*
X160999760Y-67300240D02*
X160999760Y-64101960D01*
X158300000Y-70000000D02*
X160999760Y-67300240D01*
X145800000Y-70000000D02*
X158300000Y-70000000D01*
X132220000Y-83580000D02*
X145800000Y-70000000D01*
X129680000Y-85730000D02*
X129680000Y-83320000D01*
X159999000Y-67001000D02*
X159999000Y-64101960D01*
X157800000Y-69200000D02*
X159999000Y-67001000D01*
X143800000Y-69200000D02*
X157800000Y-69200000D01*
X129680000Y-83320000D02*
X143800000Y-69200000D01*
X127140000Y-85730000D02*
X127140000Y-83160000D01*
X158998240Y-66801760D02*
X158998240Y-64101960D01*
X157400000Y-68400000D02*
X158998240Y-66801760D01*
X141900000Y-68400000D02*
X157400000Y-68400000D01*
X127140000Y-83160000D02*
X141900000Y-68400000D01*
X124600000Y-85730000D02*
X124600000Y-83000000D01*
X157997480Y-66702520D02*
X157997480Y-64101960D01*
X157100000Y-67600000D02*
X157997480Y-66702520D01*
X140000000Y-67600000D02*
X157100000Y-67600000D01*
X124600000Y-83000000D02*
X140000000Y-67600000D01*
X170300000Y-100400000D02*
X170300000Y-88290000D01*
X170300000Y-88290000D02*
X170320000Y-88270000D01*
X176001000Y-59898040D02*
X176001000Y-62399000D01*
X176001000Y-62399000D02*
X176000000Y-62400000D01*
X169900000Y-112500000D02*
X169900000Y-105500000D01*
X167780000Y-103380000D02*
X167780000Y-88270000D01*
X169900000Y-105500000D02*
X167780000Y-103380000D01*
X175000240Y-59898040D02*
X175000240Y-61699760D01*
X175000240Y-61699760D02*
X175000000Y-61700000D01*
X165200000Y-88310000D02*
X165200000Y-98000000D01*
X165200000Y-88310000D02*
X165240000Y-88270000D01*
X173999480Y-59898040D02*
X173999480Y-62399480D01*
X173999480Y-62399480D02*
X174000000Y-62400000D01*
X165900000Y-112500000D02*
X165900000Y-105800000D01*
X160160000Y-100060000D02*
X160160000Y-88270000D01*
X165900000Y-105800000D02*
X160160000Y-100060000D01*
X172000500Y-59898040D02*
X172000500Y-62399500D01*
X172000500Y-62399500D02*
X172000000Y-62400000D01*
X157600000Y-88290000D02*
X157600000Y-96700000D01*
X157600000Y-88290000D02*
X157620000Y-88270000D01*
X170999740Y-59898040D02*
X170999740Y-61699740D01*
X170999740Y-61699740D02*
X171000000Y-61700000D01*
X161900000Y-112500000D02*
X161900000Y-106300000D01*
X155080000Y-99480000D02*
X155080000Y-88270000D01*
X161900000Y-106300000D02*
X155080000Y-99480000D01*
X169998980Y-59898040D02*
X169998980Y-62398980D01*
X169998980Y-62398980D02*
X170000000Y-62400000D01*
X152600000Y-94400000D02*
X152600000Y-88330000D01*
X152600000Y-88330000D02*
X152540000Y-88270000D01*
X169000760Y-59898040D02*
X169000760Y-61699240D01*
X169000760Y-61699240D02*
X169000000Y-61700000D01*
X168000000Y-59898040D02*
X168000000Y-62400000D01*
X155900000Y-112500000D02*
X155900000Y-105100000D01*
X147460000Y-96660000D02*
X147460000Y-88270000D01*
X155900000Y-105100000D02*
X147460000Y-96660000D01*
X166999240Y-59898040D02*
X166999240Y-61699240D01*
X166999240Y-61699240D02*
X167000000Y-61700000D01*
X151900000Y-112500000D02*
X151900000Y-106000000D01*
X144920000Y-99020000D02*
X144920000Y-88270000D01*
X151900000Y-106000000D02*
X144920000Y-99020000D01*
X166001020Y-59898040D02*
X166001020Y-62398980D01*
X166001020Y-62398980D02*
X166000000Y-62400000D01*
X147900000Y-112500000D02*
X147900000Y-107000000D01*
X142380000Y-101480000D02*
X142380000Y-88270000D01*
X147900000Y-107000000D02*
X142380000Y-101480000D01*
X165000260Y-59898040D02*
X165000260Y-61699740D01*
X165000260Y-61699740D02*
X165000000Y-61700000D01*
X145900000Y-112500000D02*
X145900000Y-107500000D01*
X139840000Y-101440000D02*
X139840000Y-88270000D01*
X145900000Y-107500000D02*
X139840000Y-101440000D01*
X163999500Y-59898040D02*
X163999500Y-62399500D01*
X163999500Y-62399500D02*
X164000000Y-62400000D01*
X162998740Y-59898040D02*
X162998740Y-61698740D01*
X162998740Y-61698740D02*
X163000000Y-61700000D01*
X162000520Y-59898040D02*
X162000520Y-62399480D01*
X162000520Y-62399480D02*
X162000000Y-62400000D01*
X132220000Y-88270000D02*
X132220000Y-102680000D01*
X132220000Y-102680000D02*
X132200000Y-102700000D01*
X160999760Y-59898040D02*
X160999760Y-61699760D01*
X160999760Y-61699760D02*
X161000000Y-61700000D01*
X159999000Y-59898040D02*
X159999000Y-62399000D01*
X159999000Y-62399000D02*
X160000000Y-62400000D01*
X159000780Y-59898040D02*
X159000780Y-61699220D01*
X159000780Y-61699220D02*
X159000000Y-61700000D01*
X158000020Y-59898040D02*
X158000020Y-62399980D01*
X158000020Y-62399980D02*
X158000000Y-62400000D01*
M02*
