G04 #@! TF.FileFunction,Copper,L1,Top,Mixed*
%FSLAX46Y46*%
G04 Gerber Fmt 4.6, Leading zero omitted, Abs format (unit mm)*
G04 Created by KiCad (PCBNEW no-vcs-found-product) date Sat 16 Jan 2016 00:16:32 CET*
%MOMM*%
G01*
G04 APERTURE LIST*
%ADD10C,0.150000*%
%ADD11C,0.381000*%
%ADD12R,1.300000X1.800000*%
%ADD13O,1.300000X1.800000*%
%ADD14O,1.500000X2.000000*%
%ADD15R,1.500000X2.000000*%
%ADD16C,1.524000*%
%ADD17R,2.000000X2.000000*%
%ADD18C,2.000000*%
%ADD19C,1.397000*%
%ADD20C,0.889000*%
%ADD21C,0.400000*%
%ADD22C,0.203200*%
%ADD23C,0.398780*%
G04 APERTURE END LIST*
D10*
D11*
X129899380Y-72450180D02*
X129899380Y-74050380D01*
X129899380Y-74050380D02*
X130600420Y-74050380D01*
X128349980Y-73999580D02*
X128349980Y-72549240D01*
X128349980Y-72549240D02*
X128901160Y-72500980D01*
X128901160Y-72500980D02*
X129150080Y-72699100D01*
X129150080Y-72699100D02*
X129249140Y-73100420D01*
X129249140Y-73100420D02*
X128949420Y-73250280D01*
X128949420Y-73250280D02*
X128449040Y-73199480D01*
X127648940Y-72600040D02*
X127400020Y-72500980D01*
X127400020Y-72500980D02*
X127100300Y-72549240D01*
X127100300Y-72549240D02*
X126800580Y-72899760D01*
X126800580Y-72899760D02*
X126749780Y-73400140D01*
X126749780Y-73400140D02*
X126899640Y-73849720D01*
X126899640Y-73849720D02*
X127250160Y-73999580D01*
X127250160Y-73999580D02*
X127699740Y-73900520D01*
X127699740Y-73900520D02*
X127699740Y-73400140D01*
X127699740Y-73400140D02*
X127400020Y-73400140D01*
X121448800Y-72549240D02*
X121448800Y-73699860D01*
X121448800Y-73699860D02*
X121601200Y-73948780D01*
X121601200Y-73948780D02*
X121949180Y-74101180D01*
X121949180Y-74101180D02*
X122248900Y-73948780D01*
X122248900Y-73948780D02*
X122350500Y-73649060D01*
X122350500Y-73649060D02*
X122350500Y-72549240D01*
X119899400Y-74101180D02*
X119899400Y-72549240D01*
X119899400Y-72549240D02*
X120750300Y-74050380D01*
X120750300Y-74050380D02*
X120750300Y-72549240D01*
X119150100Y-72600040D02*
X118949440Y-72500980D01*
X118949440Y-72500980D02*
X118499860Y-72650840D01*
X118499860Y-72650840D02*
X118299200Y-73049620D01*
X118299200Y-73049620D02*
X118299200Y-73499200D01*
X118299200Y-73499200D02*
X118449060Y-73900520D01*
X118449060Y-73900520D02*
X118748780Y-74050380D01*
X118748780Y-74050380D02*
X119150100Y-74050380D01*
X119150100Y-74050380D02*
X119200900Y-73499200D01*
X119200900Y-73499200D02*
X118949440Y-73400140D01*
X121949180Y-66049380D02*
X120950960Y-66849480D01*
X120950960Y-66849480D02*
X121400540Y-65698860D01*
X121400540Y-65698860D02*
X120450580Y-66498960D01*
X120450580Y-66498960D02*
X121149080Y-65201020D01*
X121149080Y-65201020D02*
X120100060Y-65851260D01*
X120100060Y-65851260D02*
X120001000Y-65399140D01*
X120001000Y-65399140D02*
X121298940Y-65051160D01*
X121298940Y-65051160D02*
X120150860Y-64799700D01*
X120150860Y-64799700D02*
X121400540Y-64400920D01*
X121400540Y-64400920D02*
X120900160Y-63900540D01*
X120900160Y-63900540D02*
X121949180Y-64149460D01*
X121949180Y-64149460D02*
X121900920Y-63499220D01*
X121900920Y-63499220D02*
X123000740Y-63999600D01*
X125449300Y-65201020D02*
X126099540Y-65399140D01*
X126099540Y-65399140D02*
X126500860Y-65599800D01*
X126500860Y-65599800D02*
X127798800Y-66450700D01*
X127798800Y-66450700D02*
X127549880Y-65350880D01*
X127549880Y-65350880D02*
X128299180Y-66049380D01*
X128299180Y-66049380D02*
X127849600Y-64949560D01*
X127849600Y-64949560D02*
X128850360Y-65201020D01*
X128850360Y-65201020D02*
X127600680Y-64499980D01*
X127600680Y-64499980D02*
X128748760Y-64050400D01*
X128748760Y-64050400D02*
X127001240Y-64251060D01*
X127001240Y-64251060D02*
X127499080Y-63550020D01*
X127499080Y-63550020D02*
X126351000Y-64251060D01*
X125550900Y-64898760D02*
X125799820Y-64949560D01*
X122650220Y-65650600D02*
X123150600Y-65350880D01*
X123150600Y-65350880D02*
X123899900Y-65000360D01*
X123899900Y-65000360D02*
X124250420Y-65000360D01*
X122850880Y-71200500D02*
X122599420Y-70999840D01*
X122599420Y-70999840D02*
X122449560Y-70799180D01*
X122449560Y-70799180D02*
X122200640Y-70550260D01*
X122200640Y-70550260D02*
X122149840Y-70250540D01*
X122149840Y-70250540D02*
X122050780Y-69849220D01*
X122050780Y-69849220D02*
X121999980Y-69450440D01*
X121999980Y-69450440D02*
X121949180Y-69049120D01*
X121949180Y-69049120D02*
X121949180Y-68548740D01*
X121949180Y-68548740D02*
X121949180Y-68050900D01*
X122949940Y-71200500D02*
X123150600Y-71149700D01*
X122500360Y-68050900D02*
X122800080Y-68500480D01*
X122800080Y-68500480D02*
X122701020Y-68950060D01*
X122701020Y-68950060D02*
X123150600Y-69249780D01*
X123150600Y-69249780D02*
X122949940Y-69900020D01*
X122949940Y-69900020D02*
X123501120Y-70298800D01*
X123501120Y-70298800D02*
X123300460Y-70999840D01*
X123300460Y-70999840D02*
X123849100Y-71449420D01*
X124100560Y-73199480D02*
X124049760Y-73301080D01*
X123800840Y-71551020D02*
X123998960Y-71949800D01*
X123998960Y-71949800D02*
X124100560Y-72249520D01*
X124100560Y-72249520D02*
X123699240Y-72351120D01*
X123699240Y-72351120D02*
X124049760Y-72699100D01*
X124049760Y-72699100D02*
X123998960Y-72998820D01*
X123998960Y-72998820D02*
X124049760Y-73151220D01*
X124550140Y-70900780D02*
X124400280Y-71299560D01*
X124400280Y-71299560D02*
X124499340Y-71500220D01*
X124499340Y-71500220D02*
X124750800Y-71700880D01*
X124750800Y-71700880D02*
X124900660Y-71899000D01*
X124900660Y-71899000D02*
X124849860Y-72201260D01*
X124849860Y-72201260D02*
X124799060Y-72399380D01*
X124799060Y-72399380D02*
X124849860Y-72950560D01*
X124849860Y-72950560D02*
X125050520Y-73151220D01*
X125149580Y-70499460D02*
X124948920Y-70949040D01*
X124948920Y-70949040D02*
X125251180Y-71248760D01*
X125251180Y-71248760D02*
X125649960Y-71449420D01*
X125649960Y-71449420D02*
X125599160Y-71899000D01*
X125599160Y-71899000D02*
X125449300Y-72300320D01*
X125449300Y-72300320D02*
X125599160Y-72549240D01*
X126000480Y-72099660D02*
X126048740Y-72099660D01*
X125949680Y-70148940D02*
X126201140Y-70250540D01*
X126201140Y-70250540D02*
X126450060Y-70250540D01*
X126450060Y-70250540D02*
X126249400Y-70298800D01*
X126249400Y-70298800D02*
X125700760Y-70400400D01*
X125700760Y-70400400D02*
X125649960Y-70550260D01*
X125649960Y-70550260D02*
X125700760Y-70750920D01*
X125700760Y-70750920D02*
X125898880Y-70949040D01*
X125898880Y-70949040D02*
X126150340Y-71149700D01*
X126150340Y-71149700D02*
X126249400Y-71500220D01*
X126249400Y-71500220D02*
X126150340Y-71799940D01*
X126150340Y-71799940D02*
X126000480Y-72099660D01*
X125299440Y-69849220D02*
X125700760Y-70100680D01*
X125700760Y-70100680D02*
X125949680Y-70100680D01*
X126500860Y-69750160D02*
X125898880Y-69849220D01*
X125898880Y-69849220D02*
X125449300Y-69800960D01*
X125449300Y-69800960D02*
X124948920Y-69750160D01*
X124948920Y-69750160D02*
X124499340Y-69600300D01*
X124499340Y-69600300D02*
X124349480Y-69399640D01*
X124349480Y-69399640D02*
X124148820Y-69049120D01*
X124148820Y-69049120D02*
X123998960Y-68548740D01*
X123998960Y-68548740D02*
X123849100Y-68299820D01*
X123849100Y-68299820D02*
X123549380Y-68249020D01*
X126500860Y-69049120D02*
X126351000Y-69049120D01*
X126351000Y-69049120D02*
X125949680Y-69150720D01*
X125949680Y-69150720D02*
X126099540Y-69501240D01*
X126099540Y-69501240D02*
X126450060Y-69699360D01*
X126450060Y-67200000D02*
X126399260Y-67850240D01*
X125700760Y-67700380D02*
X125799820Y-67850240D01*
X125799820Y-67850240D02*
X125949680Y-68000100D01*
X125949680Y-68000100D02*
X126099540Y-68000100D01*
X126099540Y-68000100D02*
X126300200Y-67901040D01*
X126300200Y-67901040D02*
X126500860Y-67901040D01*
X125550900Y-67649580D02*
X125251180Y-67499720D01*
X125251180Y-67499720D02*
X124948920Y-67499720D01*
X124948920Y-67499720D02*
X124799060Y-67499720D01*
X124799060Y-67499720D02*
X124600940Y-67598780D01*
X124600940Y-67598780D02*
X124400280Y-67649580D01*
X125350240Y-66648820D02*
X125401040Y-67100940D01*
X125401040Y-67100940D02*
X125550900Y-67499720D01*
X125550900Y-67499720D02*
X125649960Y-67649580D01*
X126450060Y-68449680D02*
X126351000Y-68599540D01*
X125599160Y-68350620D02*
X125149580Y-68000100D01*
X125149580Y-68000100D02*
X124750800Y-68149960D01*
X124750800Y-68149960D02*
X124799060Y-68548740D01*
X124799060Y-68548740D02*
X125050520Y-68701140D01*
X125050520Y-68701140D02*
X125350240Y-68701140D01*
X125350240Y-68701140D02*
X125449300Y-68599540D01*
X125449300Y-68599540D02*
X125599160Y-68350620D01*
X125898880Y-66600560D02*
X126048740Y-66250040D01*
X126048740Y-66250040D02*
X126450060Y-66349100D01*
X126450060Y-66349100D02*
X126549120Y-66549760D01*
X126549120Y-66549760D02*
X126450060Y-66801220D01*
X126450060Y-66801220D02*
X126000480Y-66699620D01*
X124750800Y-66750420D02*
X124400280Y-66600560D01*
X124400280Y-66600560D02*
X123950700Y-66498960D01*
X123950700Y-66498960D02*
X123699240Y-66750420D01*
X123699240Y-66750420D02*
X123899900Y-66999340D01*
X123899900Y-66999340D02*
X124301220Y-66999340D01*
X124301220Y-66999340D02*
X124700000Y-66801220D01*
X124700000Y-65650600D02*
X125098780Y-65500740D01*
X125098780Y-65500740D02*
X125350240Y-65150220D01*
X121700260Y-66951080D02*
X121700260Y-67550520D01*
X121700260Y-67550520D02*
X121199880Y-68299820D01*
X121199880Y-68299820D02*
X122599420Y-67751180D01*
X122599420Y-67751180D02*
X123099800Y-67400660D01*
X123099800Y-67400660D02*
X123249660Y-66450700D01*
X123249660Y-66450700D02*
X123849100Y-65899520D01*
X125799820Y-63699880D02*
X126249400Y-64299320D01*
X126249400Y-64299320D02*
X126599920Y-64400920D01*
X126599920Y-64400920D02*
X127049500Y-64400920D01*
X127049500Y-64400920D02*
X127400020Y-64449180D01*
X127400020Y-64449180D02*
X127600680Y-64850500D01*
X127600680Y-64850500D02*
X127648940Y-65150220D01*
X127648940Y-65150220D02*
X127349220Y-65399140D01*
X127349220Y-65399140D02*
X127049500Y-65449940D01*
X127049500Y-65449940D02*
X126698980Y-65300080D01*
X126698980Y-65300080D02*
X126249400Y-65000360D01*
X126249400Y-65000360D02*
X126000480Y-64799700D01*
X126000480Y-64799700D02*
X125700760Y-64649840D01*
X125700760Y-64649840D02*
X125299440Y-64649840D01*
X125299440Y-64649840D02*
X124799060Y-64898760D01*
X124799060Y-64898760D02*
X124600940Y-64850500D01*
X124600940Y-64850500D02*
X124301220Y-64700640D01*
X124301220Y-64700640D02*
X123800840Y-64599040D01*
X123800840Y-64599040D02*
X123300460Y-64649840D01*
X123300460Y-64649840D02*
X122701020Y-65051160D01*
X122701020Y-65051160D02*
X122248900Y-65500740D01*
X122248900Y-65500740D02*
X121900920Y-65899520D01*
X121900920Y-65899520D02*
X121448800Y-65749660D01*
X121448800Y-65749660D02*
X121250680Y-65249280D01*
X121250680Y-65249280D02*
X121349740Y-64599040D01*
X121349740Y-64599040D02*
X121649460Y-64350120D01*
X121649460Y-64350120D02*
X122099040Y-64200260D01*
X122099040Y-64200260D02*
X122749280Y-64050400D01*
X122749280Y-64050400D02*
X123099800Y-64101200D01*
X123099800Y-64101200D02*
X123650980Y-63849740D01*
X123650980Y-63849740D02*
X123849100Y-63499220D01*
X123849100Y-63499220D02*
X123450320Y-63649080D01*
X123450320Y-63649080D02*
X122800080Y-63600820D01*
X122800080Y-63600820D02*
X121850120Y-63450960D01*
X121850120Y-63450960D02*
X121448800Y-63499220D01*
X121448800Y-63499220D02*
X121100820Y-63649080D01*
X121100820Y-63649080D02*
X120498840Y-64050400D01*
X120498840Y-64050400D02*
X120049260Y-64850500D01*
X120049260Y-64850500D02*
X119950200Y-65549000D01*
X119950200Y-65549000D02*
X120249920Y-66450700D01*
X120249920Y-66450700D02*
X120801100Y-66951080D01*
X120801100Y-66951080D02*
X121448800Y-67200000D01*
X121448800Y-67200000D02*
X122200640Y-66001120D01*
X122200640Y-66001120D02*
X122899140Y-65350880D01*
X122899140Y-65350880D02*
X123501120Y-64898760D01*
X123501120Y-64898760D02*
X124049760Y-64850500D01*
X124049760Y-64850500D02*
X124499340Y-65051160D01*
X124499340Y-65051160D02*
X124900660Y-65150220D01*
X124900660Y-65150220D02*
X125350240Y-65000360D01*
X125350240Y-65000360D02*
X125799820Y-65099420D01*
X125799820Y-65099420D02*
X126399260Y-65399140D01*
X126399260Y-65399140D02*
X126599920Y-65650600D01*
X126599920Y-65650600D02*
X127300960Y-66750420D01*
X127300960Y-66750420D02*
X127600680Y-67400660D01*
X127600680Y-67400660D02*
X127001240Y-67499720D01*
X127001240Y-67499720D02*
X126549120Y-67100940D01*
X126450060Y-67901040D02*
X126848840Y-67901040D01*
X126848840Y-67901040D02*
X127001240Y-68050900D01*
X127001240Y-68050900D02*
X126500860Y-69049120D01*
X125850620Y-63600820D02*
X126450060Y-63849740D01*
X126450060Y-63849740D02*
X126899640Y-63750680D01*
X126899640Y-63750680D02*
X127400020Y-63499220D01*
X127400020Y-63499220D02*
X127849600Y-63450960D01*
X127849600Y-63450960D02*
X128299180Y-63699880D01*
X128299180Y-63699880D02*
X128748760Y-63999600D01*
X128748760Y-63999600D02*
X128949420Y-64550780D01*
X128949420Y-64550780D02*
X128949420Y-65000360D01*
X128949420Y-65000360D02*
X128850360Y-65399140D01*
X128850360Y-65399140D02*
X128598900Y-65950320D01*
X128598900Y-65950320D02*
X128149320Y-66349100D01*
X128149320Y-66349100D02*
X127600680Y-66750420D01*
D12*
X177900000Y-112250000D03*
D13*
X177900000Y-114750000D03*
X175900000Y-112250000D03*
X175900000Y-114750000D03*
X173900000Y-112250000D03*
X173900000Y-114750000D03*
X171900000Y-112250000D03*
X171900000Y-114750000D03*
X169900000Y-112250000D03*
X169900000Y-114750000D03*
X167900000Y-112250000D03*
X167900000Y-114750000D03*
X165900000Y-112250000D03*
X165900000Y-114750000D03*
X163900000Y-112250000D03*
X163900000Y-114750000D03*
X161900000Y-112250000D03*
X161900000Y-114750000D03*
X159900000Y-112250000D03*
X159900000Y-114750000D03*
X157900000Y-112250000D03*
X157900000Y-114750000D03*
X155900000Y-112250000D03*
X155900000Y-114750000D03*
X153900000Y-112250000D03*
X153900000Y-114750000D03*
X151900000Y-112250000D03*
X151900000Y-114750000D03*
X149900000Y-112250000D03*
X149900000Y-114750000D03*
X147900000Y-112250000D03*
X147900000Y-114750000D03*
X145900000Y-112250000D03*
X145900000Y-114750000D03*
X143900000Y-112250000D03*
X143900000Y-114750000D03*
X141900000Y-112250000D03*
X141900000Y-114750000D03*
X139900000Y-112250000D03*
X139900000Y-114750000D03*
X137900000Y-112250000D03*
X137900000Y-114750000D03*
X135900000Y-112250000D03*
X135900000Y-114750000D03*
D14*
X129680000Y-88520000D03*
X129680000Y-85480000D03*
X127140000Y-85480000D03*
X127140000Y-88520000D03*
X124600000Y-88520000D03*
X124600000Y-85480000D03*
X119520000Y-85480000D03*
X119520000Y-88520000D03*
X122060000Y-88520000D03*
X122060000Y-85480000D03*
X134760000Y-85480000D03*
X134760000Y-88520000D03*
X132220000Y-88520000D03*
X132220000Y-85480000D03*
X137300000Y-85480000D03*
X137300000Y-88520000D03*
X139840000Y-88520000D03*
X139840000Y-85480000D03*
X142380000Y-85480000D03*
X142380000Y-88520000D03*
X147460000Y-85480000D03*
X147460000Y-88520000D03*
X144920000Y-88520000D03*
X144920000Y-85480000D03*
X150000000Y-85480000D03*
X150000000Y-88520000D03*
X152540000Y-88520000D03*
X152540000Y-85480000D03*
X155080000Y-85480000D03*
X155080000Y-88520000D03*
X157620000Y-88520000D03*
X157620000Y-85480000D03*
X160160000Y-85480000D03*
X160160000Y-88520000D03*
X162700000Y-88520000D03*
X162700000Y-85480000D03*
X165240000Y-85480000D03*
X165240000Y-88520000D03*
X167780000Y-88520000D03*
X167780000Y-85480000D03*
X170320000Y-85480000D03*
X170320000Y-88520000D03*
X172860000Y-88520000D03*
X172860000Y-85480000D03*
D15*
X180480000Y-85480000D03*
D14*
X180480000Y-88520000D03*
X177940000Y-85480000D03*
X177940000Y-88520000D03*
X175400000Y-85480000D03*
X175400000Y-88520000D03*
D16*
X134100000Y-109100000D03*
D17*
X122300000Y-104900000D03*
D18*
X124840000Y-104900000D03*
D19*
X122300000Y-112470000D03*
X122300000Y-109930000D03*
D16*
X118800000Y-101700000D03*
D20*
X178700000Y-92000000D03*
X187000000Y-61700000D03*
X189000000Y-61700000D03*
X171600000Y-103000000D03*
X166500000Y-100200000D03*
X158900000Y-99100000D03*
X153800000Y-96300000D03*
X186000000Y-62400000D03*
X170300000Y-100400000D03*
X185000000Y-61700000D03*
X184000000Y-62400000D03*
X165200000Y-98000000D03*
X182000000Y-62400000D03*
X157600000Y-96700000D03*
X181000000Y-61700000D03*
X180000000Y-62400000D03*
X179000000Y-61700000D03*
X152600000Y-94400000D03*
X177000000Y-61700000D03*
X176000000Y-62400000D03*
X175000000Y-61700000D03*
X174000000Y-62400000D03*
X172000000Y-62400000D03*
X171000000Y-61700000D03*
X132200000Y-102700000D03*
X169000000Y-61700000D03*
X168000000Y-62400000D03*
D21*
X176050000Y-90950000D02*
X175400000Y-90300000D01*
X176050000Y-90950000D02*
X177650000Y-90950000D01*
X177650000Y-90950000D02*
X178700000Y-92000000D01*
X175400000Y-88270000D02*
X175400000Y-90300000D01*
D22*
X187000000Y-79700000D02*
X187000000Y-80100000D01*
X174100000Y-84200000D02*
X176200000Y-82100000D01*
X187000000Y-79700000D02*
X187000000Y-61700000D01*
X174100000Y-87030000D02*
X172860000Y-88270000D01*
X174100000Y-84200000D02*
X174100000Y-87030000D01*
X185000000Y-82100000D02*
X176200000Y-82100000D01*
X187000000Y-80100000D02*
X185000000Y-82100000D01*
X186950000Y-87050000D02*
X179160000Y-87050000D01*
X179160000Y-87050000D02*
X177940000Y-88270000D01*
X189000000Y-62400000D02*
X189000000Y-85000000D01*
X189000000Y-62400000D02*
X189000000Y-62400000D01*
X189000000Y-62400000D02*
X189000000Y-61700000D01*
X186945000Y-87055000D02*
X186950000Y-87050000D01*
X186950000Y-87050000D02*
X189000000Y-85000000D01*
D21*
X159900000Y-112500000D02*
X159900000Y-108700000D01*
X146700000Y-105500000D02*
X142300000Y-101100000D01*
X156700000Y-105500000D02*
X146700000Y-105500000D01*
X159900000Y-108700000D02*
X156700000Y-105500000D01*
X150000000Y-88270000D02*
X150000000Y-91600000D01*
X137300000Y-88270000D02*
X137300000Y-90100000D01*
X138800000Y-91600000D02*
X144900000Y-91600000D01*
X137300000Y-90100000D02*
X138800000Y-91600000D01*
X129680000Y-88270000D02*
X129680000Y-90620000D01*
X128400000Y-91900000D02*
X121100000Y-91900000D01*
X129680000Y-90620000D02*
X128400000Y-91900000D01*
X116700000Y-101800000D02*
X116700000Y-95000000D01*
X116700000Y-95000000D02*
X119800000Y-91900000D01*
D23*
X119800000Y-91900000D02*
X121100000Y-91900000D01*
X122060000Y-90940000D02*
X122060000Y-88270000D01*
X121100000Y-91900000D02*
X122060000Y-90940000D01*
D21*
X134100000Y-109100000D02*
X135900000Y-109100000D01*
X162700000Y-88270000D02*
X162700000Y-90300000D01*
X162700000Y-90300000D02*
X161400000Y-91600000D01*
X161400000Y-91600000D02*
X150000000Y-91600000D01*
X150000000Y-91600000D02*
X144900000Y-91600000D01*
X144900000Y-91600000D02*
X142300000Y-94200000D01*
X142300000Y-94200000D02*
X142300000Y-101100000D01*
X135900000Y-107500000D02*
X135900000Y-109100000D01*
X142300000Y-101100000D02*
X135900000Y-107500000D01*
X135900000Y-109100000D02*
X135900000Y-112500000D01*
X122300000Y-122300000D02*
X118900000Y-122300000D01*
X153900000Y-118600000D02*
X150200000Y-122300000D01*
X150200000Y-122300000D02*
X122300000Y-122300000D01*
X153900000Y-114500000D02*
X153900000Y-118600000D01*
X116700000Y-120100000D02*
X116700000Y-101800000D01*
X116700000Y-101800000D02*
X116700000Y-101700000D01*
X118900000Y-122300000D02*
X116700000Y-120100000D01*
X118800000Y-101700000D02*
X116700000Y-101700000D01*
D22*
X179900000Y-105300000D02*
X177600000Y-103000000D01*
X175900000Y-116500000D02*
X176400000Y-117000000D01*
X176400000Y-117000000D02*
X179400000Y-117000000D01*
X179400000Y-117000000D02*
X179900000Y-116500000D01*
X179900000Y-116500000D02*
X179900000Y-105300000D01*
X175900000Y-116500000D02*
X175900000Y-114500000D01*
X177600000Y-103000000D02*
X171600000Y-103000000D01*
X169600000Y-99000000D02*
X168400000Y-100200000D01*
X171900000Y-116800000D02*
X174100000Y-119000000D01*
X181900000Y-118200000D02*
X181900000Y-103500000D01*
X181900000Y-103500000D02*
X177400000Y-99000000D01*
X177400000Y-99000000D02*
X169600000Y-99000000D01*
X171900000Y-116800000D02*
X171900000Y-114500000D01*
X181100000Y-119000000D02*
X181900000Y-118200000D01*
X174100000Y-119000000D02*
X181100000Y-119000000D01*
X168400000Y-100200000D02*
X166500000Y-100200000D01*
X164000000Y-96500000D02*
X163300000Y-96500000D01*
X167900000Y-117600000D02*
X167900000Y-114500000D01*
X179900000Y-96500000D02*
X164000000Y-96500000D01*
X183900000Y-100500000D02*
X179900000Y-96500000D01*
X183900000Y-120200000D02*
X183900000Y-100500000D01*
X183000000Y-121100000D02*
X183900000Y-120200000D01*
X171400000Y-121100000D02*
X183000000Y-121100000D01*
X167900000Y-117600000D02*
X171400000Y-121100000D01*
X160700000Y-99100000D02*
X158900000Y-99100000D01*
X163300000Y-96500000D02*
X160700000Y-99100000D01*
X158000000Y-94200000D02*
X157600000Y-94200000D01*
X163900000Y-118200000D02*
X163900000Y-114500000D01*
X181600000Y-94200000D02*
X158000000Y-94200000D01*
X185800000Y-98400000D02*
X181600000Y-94200000D01*
X185800000Y-122200000D02*
X185800000Y-98400000D01*
X184500000Y-123500000D02*
X185800000Y-122200000D01*
X169200000Y-123500000D02*
X184500000Y-123500000D01*
X163900000Y-118200000D02*
X169200000Y-123500000D01*
X155500000Y-96300000D02*
X153800000Y-96300000D01*
X157600000Y-94200000D02*
X155500000Y-96300000D01*
X186000000Y-76600000D02*
X186000000Y-79400000D01*
X186000000Y-62400000D02*
X186000000Y-76600000D01*
X174300000Y-81300000D02*
X171600000Y-84000000D01*
X171600000Y-84000000D02*
X171600000Y-86990000D01*
X171600000Y-86990000D02*
X170320000Y-88270000D01*
X184100000Y-81300000D02*
X174300000Y-81300000D01*
X186000000Y-79400000D02*
X184100000Y-81300000D01*
X180900000Y-104400000D02*
X176900000Y-100400000D01*
X173900000Y-114500000D02*
X173900000Y-117200000D01*
X180900000Y-117400000D02*
X180900000Y-104400000D01*
X180300000Y-118000000D02*
X180900000Y-117400000D01*
X174700000Y-118000000D02*
X180300000Y-118000000D01*
X173900000Y-117200000D02*
X174700000Y-118000000D01*
X176900000Y-100400000D02*
X170300000Y-100400000D01*
X185000000Y-76800000D02*
X185000000Y-78500000D01*
X185000000Y-61700000D02*
X185000000Y-76800000D01*
X172400000Y-80500000D02*
X169100000Y-83800000D01*
X169100000Y-83800000D02*
X169100000Y-86950000D01*
X167780000Y-88270000D02*
X169100000Y-86950000D01*
X183000000Y-80500000D02*
X172400000Y-80500000D01*
X185000000Y-78500000D02*
X183000000Y-80500000D01*
X184000000Y-75700000D02*
X184000000Y-77600000D01*
X184000000Y-62400000D02*
X184000000Y-75700000D01*
X170500000Y-79700000D02*
X166500000Y-83700000D01*
X166500000Y-83700000D02*
X166500000Y-87010000D01*
X165240000Y-88270000D02*
X166500000Y-87010000D01*
X181900000Y-79700000D02*
X170500000Y-79700000D01*
X184000000Y-77600000D02*
X181900000Y-79700000D01*
X168500000Y-97800000D02*
X167400000Y-97800000D01*
X168500000Y-97800000D02*
X178500000Y-97800000D01*
X178500000Y-97800000D02*
X179500000Y-98800000D01*
X169900000Y-117400000D02*
X169900000Y-114500000D01*
X169900000Y-117400000D02*
X172500000Y-120000000D01*
X172500000Y-120000000D02*
X181900000Y-120000000D01*
X181900000Y-120000000D02*
X182900000Y-119000000D01*
X182900000Y-119000000D02*
X182900000Y-102200000D01*
X182900000Y-102200000D02*
X179500000Y-98800000D01*
X167200000Y-98000000D02*
X165200000Y-98000000D01*
X167400000Y-97800000D02*
X167200000Y-98000000D01*
X182000000Y-72400000D02*
X182000000Y-75400000D01*
X182000000Y-62400000D02*
X182000000Y-72400000D01*
X167700000Y-77500000D02*
X161400000Y-83800000D01*
X161400000Y-83800000D02*
X161400000Y-87030000D01*
X161400000Y-87030000D02*
X160160000Y-88270000D01*
X179900000Y-77500000D02*
X167700000Y-77500000D01*
X182000000Y-75400000D02*
X179900000Y-77500000D01*
X181000000Y-70700000D02*
X181000000Y-74700000D01*
X166100000Y-76700000D02*
X158900000Y-83900000D01*
X158900000Y-83900000D02*
X158900000Y-86990000D01*
X158900000Y-86990000D02*
X157620000Y-88270000D01*
X179000000Y-76700000D02*
X166100000Y-76700000D01*
X181000000Y-74700000D02*
X179000000Y-76700000D01*
X162950000Y-95250000D02*
X160950000Y-95250000D01*
X165900000Y-117600000D02*
X165900000Y-114500000D01*
X180750000Y-95250000D02*
X162950000Y-95250000D01*
X184900000Y-99400000D02*
X180750000Y-95250000D01*
X184900000Y-121300000D02*
X184900000Y-99400000D01*
X183900000Y-122300000D02*
X184900000Y-121300000D01*
X170600000Y-122300000D02*
X183900000Y-122300000D01*
X165900000Y-117600000D02*
X170600000Y-122300000D01*
X159500000Y-96700000D02*
X157600000Y-96700000D01*
X160950000Y-95250000D02*
X159500000Y-96700000D01*
X181000000Y-61700000D02*
X181000000Y-70700000D01*
X181000000Y-70700000D02*
X181000000Y-70800000D01*
X180000000Y-70300000D02*
X180000000Y-73900000D01*
X164600000Y-75900000D02*
X156400000Y-84100000D01*
X156400000Y-84100000D02*
X156400000Y-86950000D01*
X156400000Y-86950000D02*
X155080000Y-88270000D01*
X178000000Y-75900000D02*
X164600000Y-75900000D01*
X180000000Y-73900000D02*
X178000000Y-75900000D01*
X180000000Y-62400000D02*
X180000000Y-70300000D01*
X180000000Y-70300000D02*
X180000000Y-70300000D01*
X179000000Y-70000000D02*
X179000000Y-73200000D01*
X179000000Y-61700000D02*
X179000000Y-70000000D01*
X164500000Y-75100000D02*
X158100000Y-81500000D01*
X158100000Y-81500000D02*
X155300000Y-81500000D01*
X155300000Y-81500000D02*
X153800000Y-83000000D01*
X153800000Y-83000000D02*
X153800000Y-87010000D01*
X153800000Y-87010000D02*
X152540000Y-88270000D01*
X177100000Y-75100000D02*
X164500000Y-75100000D01*
X179000000Y-73200000D02*
X177100000Y-75100000D01*
X157000000Y-93300000D02*
X155400000Y-93300000D01*
X161900000Y-114500000D02*
X161900000Y-118800000D01*
X182800000Y-93300000D02*
X157000000Y-93300000D01*
X186700000Y-97200000D02*
X182800000Y-93300000D01*
X186700000Y-123500000D02*
X186700000Y-97200000D01*
X185500000Y-124700000D02*
X186700000Y-123500000D01*
X167800000Y-124700000D02*
X185500000Y-124700000D01*
X161900000Y-118800000D02*
X167800000Y-124700000D01*
X154300000Y-94400000D02*
X152600000Y-94400000D01*
X155400000Y-93300000D02*
X154300000Y-94400000D01*
X177000000Y-69500000D02*
X177000000Y-71700000D01*
X164200000Y-73300000D02*
X157800000Y-79700000D01*
X157800000Y-79700000D02*
X151800000Y-79700000D01*
X151800000Y-79700000D02*
X148800000Y-82700000D01*
X148800000Y-82700000D02*
X148800000Y-86930000D01*
X148800000Y-86930000D02*
X147460000Y-88270000D01*
X175400000Y-73300000D02*
X164200000Y-73300000D01*
X177000000Y-71700000D02*
X175400000Y-73300000D01*
X177000000Y-61700000D02*
X177000000Y-69500000D01*
X177000000Y-69500000D02*
X177000000Y-69600000D01*
X176000000Y-69400000D02*
X176000000Y-70800000D01*
X176000000Y-62400000D02*
X176000000Y-69400000D01*
X163800000Y-72400000D02*
X157500000Y-78700000D01*
X157500000Y-78700000D02*
X150200000Y-78700000D01*
X150200000Y-78700000D02*
X146200000Y-82700000D01*
X146200000Y-82700000D02*
X146200000Y-86990000D01*
X146200000Y-86990000D02*
X144920000Y-88270000D01*
X174400000Y-72400000D02*
X163800000Y-72400000D01*
X176000000Y-70800000D02*
X174400000Y-72400000D01*
X175000000Y-68800000D02*
X175000000Y-70100000D01*
X175000000Y-61700000D02*
X175000000Y-68800000D01*
X163400000Y-71500000D02*
X157500000Y-77400000D01*
X157500000Y-77400000D02*
X148900000Y-77400000D01*
X148900000Y-77400000D02*
X143700000Y-82600000D01*
X143700000Y-82600000D02*
X143700000Y-86950000D01*
X143700000Y-86950000D02*
X142380000Y-88270000D01*
X173600000Y-71500000D02*
X163400000Y-71500000D01*
X175000000Y-70100000D02*
X173600000Y-71500000D01*
X175000000Y-61700000D02*
X175000000Y-61700000D01*
X174000000Y-65700000D02*
X174000000Y-69300000D01*
X162900000Y-70600000D02*
X157200000Y-76300000D01*
X157200000Y-76300000D02*
X147500000Y-76300000D01*
X147500000Y-76300000D02*
X141100000Y-82700000D01*
X141100000Y-82700000D02*
X141100000Y-87010000D01*
X139840000Y-88270000D02*
X141100000Y-87010000D01*
X174000000Y-62400000D02*
X174000000Y-65700000D01*
X172700000Y-70600000D02*
X162900000Y-70600000D01*
X174000000Y-69300000D02*
X172700000Y-70600000D01*
X172000000Y-65700000D02*
X172000000Y-67700000D01*
X172000000Y-62400000D02*
X172000000Y-65700000D01*
X162000000Y-68800000D02*
X157100000Y-73700000D01*
X157100000Y-73700000D02*
X145300000Y-73700000D01*
X145300000Y-73700000D02*
X136000000Y-83000000D01*
X136000000Y-83000000D02*
X136000000Y-87030000D01*
X136000000Y-87030000D02*
X134760000Y-88270000D01*
X170900000Y-68800000D02*
X162000000Y-68800000D01*
X172000000Y-67700000D02*
X170900000Y-68800000D01*
X143900000Y-114500000D02*
X143900000Y-117000000D01*
X134760000Y-96640000D02*
X134760000Y-88270000D01*
X130600000Y-100800000D02*
X134760000Y-96640000D01*
X130600000Y-117000000D02*
X130600000Y-100800000D01*
X131400000Y-117800000D02*
X130600000Y-117000000D01*
X143100000Y-117800000D02*
X131400000Y-117800000D01*
X143900000Y-117000000D02*
X143100000Y-117800000D01*
X171000000Y-65700000D02*
X171000000Y-67100000D01*
X161600000Y-67900000D02*
X157100000Y-72400000D01*
X157100000Y-72400000D02*
X144000000Y-72400000D01*
X144000000Y-72400000D02*
X133500000Y-82900000D01*
X133500000Y-82900000D02*
X133500000Y-86990000D01*
X132220000Y-88270000D02*
X133500000Y-86990000D01*
X171000000Y-61700000D02*
X171000000Y-65700000D01*
X170200000Y-67900000D02*
X161600000Y-67900000D01*
X171000000Y-67100000D02*
X170200000Y-67900000D01*
X141900000Y-116300000D02*
X141900000Y-114500000D01*
X141500000Y-116700000D02*
X141900000Y-116300000D01*
X132600000Y-116700000D02*
X141500000Y-116700000D01*
X132200000Y-116300000D02*
X132600000Y-116700000D01*
X132200000Y-112300000D02*
X132200000Y-116300000D01*
X132200000Y-102700000D02*
X132200000Y-112300000D01*
X169000000Y-64700000D02*
X169000000Y-65300000D01*
X169000000Y-61700000D02*
X169000000Y-64700000D01*
X145100000Y-66300000D02*
X128400000Y-83000000D01*
X128400000Y-83000000D02*
X128400000Y-87010000D01*
X127140000Y-88270000D02*
X128400000Y-87010000D01*
X168000000Y-66300000D02*
X145100000Y-66300000D01*
X169000000Y-65300000D02*
X168000000Y-66300000D01*
X168000000Y-64200000D02*
X168000000Y-64700000D01*
X166500000Y-65500000D02*
X143400000Y-65500000D01*
X143400000Y-65500000D02*
X125900000Y-83000000D01*
X125900000Y-83000000D02*
X125900000Y-86970000D01*
X125900000Y-86970000D02*
X124600000Y-88270000D01*
X167200000Y-65500000D02*
X166500000Y-65500000D01*
X168000000Y-64700000D02*
X167200000Y-65500000D01*
X168000000Y-62400000D02*
X168000000Y-64200000D01*
X168000000Y-64200000D02*
X168000000Y-64300000D01*
M02*
