G04 #@! TF.FileFunction,Legend,Bot*
%FSLAX46Y46*%
G04 Gerber Fmt 4.6, Leading zero omitted, Abs format (unit mm)*
G04 Created by KiCad (PCBNEW no-vcs-found-product) date Sat 05 Dec 2015 15:20:37 CET*
%MOMM*%
G01*
G04 APERTURE LIST*
%ADD10C,0.150000*%
%ADD11C,0.304800*%
G04 APERTURE END LIST*
D10*
D11*
X169052286Y-67545546D02*
X169124857Y-67618117D01*
X169342571Y-67690689D01*
X169487714Y-67690689D01*
X169705429Y-67618117D01*
X169850571Y-67472974D01*
X169923143Y-67327831D01*
X169995714Y-67037546D01*
X169995714Y-66819831D01*
X169923143Y-66529546D01*
X169850571Y-66384403D01*
X169705429Y-66239260D01*
X169487714Y-66166689D01*
X169342571Y-66166689D01*
X169124857Y-66239260D01*
X169052286Y-66311831D01*
X168399143Y-67690689D02*
X168399143Y-66166689D01*
X167528286Y-67690689D01*
X167528286Y-66166689D01*
X166004286Y-67690689D02*
X166875143Y-67690689D01*
X166439715Y-67690689D02*
X166439715Y-66166689D01*
X166584858Y-66384403D01*
X166730000Y-66529546D01*
X166875143Y-66602117D01*
X178559145Y-57688169D02*
X178559145Y-56164169D01*
X178051145Y-57252740D01*
X177543145Y-56164169D01*
X177543145Y-57688169D01*
X176599717Y-57688169D02*
X176744859Y-57615597D01*
X176817431Y-57543026D01*
X176890002Y-57397883D01*
X176890002Y-56962454D01*
X176817431Y-56817311D01*
X176744859Y-56744740D01*
X176599717Y-56672169D01*
X176382002Y-56672169D01*
X176236859Y-56744740D01*
X176164288Y-56817311D01*
X176091717Y-56962454D01*
X176091717Y-57397883D01*
X176164288Y-57543026D01*
X176236859Y-57615597D01*
X176382002Y-57688169D01*
X176599717Y-57688169D01*
X175220860Y-57688169D02*
X175366002Y-57615597D01*
X175438574Y-57470454D01*
X175438574Y-56164169D01*
X174059716Y-57615597D02*
X174204859Y-57688169D01*
X174495145Y-57688169D01*
X174640288Y-57615597D01*
X174712859Y-57470454D01*
X174712859Y-56889883D01*
X174640288Y-56744740D01*
X174495145Y-56672169D01*
X174204859Y-56672169D01*
X174059716Y-56744740D01*
X173987145Y-56889883D01*
X173987145Y-57035026D01*
X174712859Y-57180169D01*
X173479145Y-57688169D02*
X172680859Y-56672169D01*
X173479145Y-56672169D02*
X172680859Y-57688169D01*
X172463145Y-57833311D02*
X171302002Y-57833311D01*
X170213431Y-56164169D02*
X170939145Y-56164169D01*
X171011716Y-56889883D01*
X170939145Y-56817311D01*
X170794002Y-56744740D01*
X170431145Y-56744740D01*
X170286002Y-56817311D01*
X170213431Y-56889883D01*
X170140859Y-57035026D01*
X170140859Y-57397883D01*
X170213431Y-57543026D01*
X170286002Y-57615597D01*
X170431145Y-57688169D01*
X170794002Y-57688169D01*
X170939145Y-57615597D01*
X171011716Y-57543026D01*
X169560287Y-56309311D02*
X169487716Y-56236740D01*
X169342573Y-56164169D01*
X168979716Y-56164169D01*
X168834573Y-56236740D01*
X168762002Y-56309311D01*
X168689430Y-56454454D01*
X168689430Y-56599597D01*
X168762002Y-56817311D01*
X169632859Y-57688169D01*
X168689430Y-57688169D01*
X167383144Y-56164169D02*
X167673430Y-56164169D01*
X167818573Y-56236740D01*
X167891144Y-56309311D01*
X168036287Y-56527026D01*
X168108858Y-56817311D01*
X168108858Y-57397883D01*
X168036287Y-57543026D01*
X167963715Y-57615597D01*
X167818573Y-57688169D01*
X167528287Y-57688169D01*
X167383144Y-57615597D01*
X167310573Y-57543026D01*
X167238001Y-57397883D01*
X167238001Y-57035026D01*
X167310573Y-56889883D01*
X167383144Y-56817311D01*
X167528287Y-56744740D01*
X167818573Y-56744740D01*
X167963715Y-56817311D01*
X168036287Y-56889883D01*
X168108858Y-57035026D01*
X166294572Y-56164169D02*
X166149429Y-56164169D01*
X166004286Y-56236740D01*
X165931715Y-56309311D01*
X165859144Y-56454454D01*
X165786572Y-56744740D01*
X165786572Y-57107597D01*
X165859144Y-57397883D01*
X165931715Y-57543026D01*
X166004286Y-57615597D01*
X166149429Y-57688169D01*
X166294572Y-57688169D01*
X166439715Y-57615597D01*
X166512286Y-57543026D01*
X166584858Y-57397883D01*
X166657429Y-57107597D01*
X166657429Y-56744740D01*
X166584858Y-56454454D01*
X166512286Y-56309311D01*
X166439715Y-56236740D01*
X166294572Y-56164169D01*
X165206000Y-56309311D02*
X165133429Y-56236740D01*
X164988286Y-56164169D01*
X164625429Y-56164169D01*
X164480286Y-56236740D01*
X164407715Y-56309311D01*
X164335143Y-56454454D01*
X164335143Y-56599597D01*
X164407715Y-56817311D01*
X165278572Y-57688169D01*
X164335143Y-57688169D01*
X164044857Y-57833311D02*
X162883714Y-57833311D01*
X162230571Y-56164169D02*
X162085428Y-56164169D01*
X161940285Y-56236740D01*
X161867714Y-56309311D01*
X161795143Y-56454454D01*
X161722571Y-56744740D01*
X161722571Y-57107597D01*
X161795143Y-57397883D01*
X161867714Y-57543026D01*
X161940285Y-57615597D01*
X162085428Y-57688169D01*
X162230571Y-57688169D01*
X162375714Y-57615597D01*
X162448285Y-57543026D01*
X162520857Y-57397883D01*
X162593428Y-57107597D01*
X162593428Y-56744740D01*
X162520857Y-56454454D01*
X162448285Y-56309311D01*
X162375714Y-56236740D01*
X162230571Y-56164169D01*
X160343714Y-56164169D02*
X161069428Y-56164169D01*
X161141999Y-56889883D01*
X161069428Y-56817311D01*
X160924285Y-56744740D01*
X160561428Y-56744740D01*
X160416285Y-56817311D01*
X160343714Y-56889883D01*
X160271142Y-57035026D01*
X160271142Y-57397883D01*
X160343714Y-57543026D01*
X160416285Y-57615597D01*
X160561428Y-57688169D01*
X160924285Y-57688169D01*
X161069428Y-57615597D01*
X161141999Y-57543026D01*
X159763142Y-56164169D02*
X158747142Y-56164169D01*
X159400285Y-57688169D01*
X158093998Y-57688169D02*
X157803713Y-57688169D01*
X157658570Y-57615597D01*
X157585998Y-57543026D01*
X157440856Y-57325311D01*
X157368284Y-57035026D01*
X157368284Y-56454454D01*
X157440856Y-56309311D01*
X157513427Y-56236740D01*
X157658570Y-56164169D01*
X157948856Y-56164169D01*
X158093998Y-56236740D01*
X158166570Y-56309311D01*
X158239141Y-56454454D01*
X158239141Y-56817311D01*
X158166570Y-56962454D01*
X158093998Y-57035026D01*
X157948856Y-57107597D01*
X157658570Y-57107597D01*
X157513427Y-57035026D01*
X157440856Y-56962454D01*
X157368284Y-56817311D01*
D10*
X128461905Y-116792381D02*
X127890476Y-116792381D01*
X128176191Y-117792381D02*
X128176191Y-116792381D01*
X127557143Y-117792381D02*
X127557143Y-116792381D01*
X127176190Y-116792381D01*
X127080952Y-116840000D01*
X127033333Y-116887619D01*
X126985714Y-116982857D01*
X126985714Y-117125714D01*
X127033333Y-117220952D01*
X127080952Y-117268571D01*
X127176190Y-117316190D01*
X127557143Y-117316190D01*
X126080952Y-116792381D02*
X126557143Y-116792381D01*
X126604762Y-117268571D01*
X126557143Y-117220952D01*
X126461905Y-117173333D01*
X126223809Y-117173333D01*
X126128571Y-117220952D01*
X126080952Y-117268571D01*
X126033333Y-117363810D01*
X126033333Y-117601905D01*
X126080952Y-117697143D01*
X126128571Y-117744762D01*
X126223809Y-117792381D01*
X126461905Y-117792381D01*
X126557143Y-117744762D01*
X126604762Y-117697143D01*
X135861905Y-121292381D02*
X135290476Y-121292381D01*
X135576191Y-122292381D02*
X135576191Y-121292381D01*
X134957143Y-122292381D02*
X134957143Y-121292381D01*
X134576190Y-121292381D01*
X134480952Y-121340000D01*
X134433333Y-121387619D01*
X134385714Y-121482857D01*
X134385714Y-121625714D01*
X134433333Y-121720952D01*
X134480952Y-121768571D01*
X134576190Y-121816190D01*
X134957143Y-121816190D01*
X133528571Y-121625714D02*
X133528571Y-122292381D01*
X133766667Y-121244762D02*
X134004762Y-121959048D01*
X133385714Y-121959048D01*
M02*
