G04 #@! TF.FileFunction,Soldermask,Bot*
%FSLAX46Y46*%
G04 Gerber Fmt 4.6, Leading zero omitted, Abs format (unit mm)*
G04 Created by KiCad (PCBNEW no-vcs-found-product) date Sat 05 Dec 2015 15:20:37 CET*
%MOMM*%
G01*
G04 APERTURE LIST*
%ADD10C,0.150000*%
%ADD11R,1.808000X2.308000*%
%ADD12O,1.808000X2.308000*%
%ADD13O,2.008000X2.508000*%
%ADD14R,2.008000X2.508000*%
%ADD15R,1.107440X2.308860*%
%ADD16C,2.506980*%
%ADD17C,2.032000*%
%ADD18R,2.508000X2.508000*%
%ADD19C,2.508000*%
%ADD20C,1.905000*%
G04 APERTURE END LIST*
D10*
D11*
X177900000Y-112250000D03*
D12*
X177900000Y-114750000D03*
X175900000Y-112250000D03*
X175900000Y-114750000D03*
X173900000Y-112250000D03*
X173900000Y-114750000D03*
X171900000Y-112250000D03*
X171900000Y-114750000D03*
X169900000Y-112250000D03*
X169900000Y-114750000D03*
X167900000Y-112250000D03*
X167900000Y-114750000D03*
X165900000Y-112250000D03*
X165900000Y-114750000D03*
X163900000Y-112250000D03*
X163900000Y-114750000D03*
X161900000Y-112250000D03*
X161900000Y-114750000D03*
X159900000Y-112250000D03*
X159900000Y-114750000D03*
X157900000Y-112250000D03*
X157900000Y-114750000D03*
X155900000Y-112250000D03*
X155900000Y-114750000D03*
X153900000Y-112250000D03*
X153900000Y-114750000D03*
X151900000Y-112250000D03*
X151900000Y-114750000D03*
X149900000Y-112250000D03*
X149900000Y-114750000D03*
X147900000Y-112250000D03*
X147900000Y-114750000D03*
X145900000Y-112250000D03*
X145900000Y-114750000D03*
X143900000Y-112250000D03*
X143900000Y-114750000D03*
X141900000Y-112250000D03*
X141900000Y-114750000D03*
X139900000Y-112250000D03*
X139900000Y-114750000D03*
X137900000Y-112250000D03*
X137900000Y-114750000D03*
X135900000Y-112250000D03*
X135900000Y-114750000D03*
D13*
X129680000Y-88520000D03*
X129680000Y-85480000D03*
X127140000Y-85480000D03*
X127140000Y-88520000D03*
X124600000Y-88520000D03*
X124600000Y-85480000D03*
X119520000Y-85480000D03*
X119520000Y-88520000D03*
X122060000Y-88520000D03*
X122060000Y-85480000D03*
X134760000Y-85480000D03*
X134760000Y-88520000D03*
X132220000Y-88520000D03*
X132220000Y-85480000D03*
X137300000Y-85480000D03*
X137300000Y-88520000D03*
X139840000Y-88520000D03*
X139840000Y-85480000D03*
X142380000Y-85480000D03*
X142380000Y-88520000D03*
X147460000Y-85480000D03*
X147460000Y-88520000D03*
X144920000Y-88520000D03*
X144920000Y-85480000D03*
X150000000Y-85480000D03*
X150000000Y-88520000D03*
X152540000Y-88520000D03*
X152540000Y-85480000D03*
X155080000Y-85480000D03*
X155080000Y-88520000D03*
X157620000Y-88520000D03*
X157620000Y-85480000D03*
X160160000Y-85480000D03*
X160160000Y-88520000D03*
X162700000Y-88520000D03*
X162700000Y-85480000D03*
X165240000Y-85480000D03*
X165240000Y-88520000D03*
X167780000Y-88520000D03*
X167780000Y-85480000D03*
X170320000Y-85480000D03*
X170320000Y-88520000D03*
X172860000Y-88520000D03*
X172860000Y-85480000D03*
D14*
X180480000Y-85480000D03*
D13*
X180480000Y-88520000D03*
X177940000Y-85480000D03*
X177940000Y-88520000D03*
X175400000Y-85480000D03*
X175400000Y-88520000D03*
D15*
X179998960Y-64099420D03*
X178998200Y-64101960D03*
X177997440Y-64101960D03*
X176999220Y-64101960D03*
X175998460Y-64101960D03*
X174997700Y-64101960D03*
X173999480Y-64101960D03*
X172998720Y-64101960D03*
X171997960Y-64101960D03*
X170999740Y-64101960D03*
X169998980Y-64101960D03*
X168998220Y-64101960D03*
X167997460Y-64101960D03*
X166999240Y-64101960D03*
X165998480Y-64101960D03*
X164997720Y-64101960D03*
X163999500Y-64101960D03*
X162998740Y-64101960D03*
X161997980Y-64101960D03*
X160999760Y-64101960D03*
X159999000Y-64101960D03*
X158998240Y-64101960D03*
X157997480Y-64101960D03*
X156999260Y-64101960D03*
X155998500Y-64101960D03*
X179998960Y-59898040D03*
X179000740Y-59898040D03*
X177999980Y-59898040D03*
X176999220Y-59898040D03*
X176001000Y-59898040D03*
X175000240Y-59898040D03*
X173999480Y-59898040D03*
X173001260Y-59898040D03*
X172000500Y-59898040D03*
X170999740Y-59898040D03*
X169998980Y-59898040D03*
X169000760Y-59898040D03*
X168000000Y-59898040D03*
X166999240Y-59898040D03*
X166001020Y-59898040D03*
X165000260Y-59898040D03*
X163999500Y-59898040D03*
X162998740Y-59898040D03*
X162000520Y-59898040D03*
X160999760Y-59898040D03*
X159999000Y-59898040D03*
X159000780Y-59898040D03*
X158000020Y-59898040D03*
X156999260Y-59898040D03*
X156001040Y-59898040D03*
D16*
X182249400Y-62000000D03*
X153750600Y-62000000D03*
D17*
X127200000Y-114800000D03*
X134600000Y-119300000D03*
D18*
X122300000Y-104900000D03*
D19*
X124840000Y-104900000D03*
D20*
X122300000Y-112470000D03*
X122300000Y-109930000D03*
M02*
