G04 #@! TF.FileFunction,Legend,Bot*
%FSLAX46Y46*%
G04 Gerber Fmt 4.6, Leading zero omitted, Abs format (unit mm)*
G04 Created by KiCad (PCBNEW no-vcs-found-product) date Sat 16 Jan 2016 00:16:32 CET*
%MOMM*%
G01*
G04 APERTURE LIST*
%ADD10C,0.150000*%
%ADD11C,0.304800*%
G04 APERTURE END LIST*
D10*
D11*
X179052286Y-67545546D02*
X179124857Y-67618117D01*
X179342571Y-67690689D01*
X179487714Y-67690689D01*
X179705429Y-67618117D01*
X179850571Y-67472974D01*
X179923143Y-67327831D01*
X179995714Y-67037546D01*
X179995714Y-66819831D01*
X179923143Y-66529546D01*
X179850571Y-66384403D01*
X179705429Y-66239260D01*
X179487714Y-66166689D01*
X179342571Y-66166689D01*
X179124857Y-66239260D01*
X179052286Y-66311831D01*
X178399143Y-67690689D02*
X178399143Y-66166689D01*
X177528286Y-67690689D01*
X177528286Y-66166689D01*
X176004286Y-67690689D02*
X176875143Y-67690689D01*
X176439715Y-67690689D02*
X176439715Y-66166689D01*
X176584858Y-66384403D01*
X176730000Y-66529546D01*
X176875143Y-66602117D01*
X188559145Y-57688169D02*
X188559145Y-56164169D01*
X188051145Y-57252740D01*
X187543145Y-56164169D01*
X187543145Y-57688169D01*
X186599717Y-57688169D02*
X186744859Y-57615597D01*
X186817431Y-57543026D01*
X186890002Y-57397883D01*
X186890002Y-56962454D01*
X186817431Y-56817311D01*
X186744859Y-56744740D01*
X186599717Y-56672169D01*
X186382002Y-56672169D01*
X186236859Y-56744740D01*
X186164288Y-56817311D01*
X186091717Y-56962454D01*
X186091717Y-57397883D01*
X186164288Y-57543026D01*
X186236859Y-57615597D01*
X186382002Y-57688169D01*
X186599717Y-57688169D01*
X185220860Y-57688169D02*
X185366002Y-57615597D01*
X185438574Y-57470454D01*
X185438574Y-56164169D01*
X184059716Y-57615597D02*
X184204859Y-57688169D01*
X184495145Y-57688169D01*
X184640288Y-57615597D01*
X184712859Y-57470454D01*
X184712859Y-56889883D01*
X184640288Y-56744740D01*
X184495145Y-56672169D01*
X184204859Y-56672169D01*
X184059716Y-56744740D01*
X183987145Y-56889883D01*
X183987145Y-57035026D01*
X184712859Y-57180169D01*
X183479145Y-57688169D02*
X182680859Y-56672169D01*
X183479145Y-56672169D02*
X182680859Y-57688169D01*
X182463145Y-57833311D02*
X181302002Y-57833311D01*
X180213431Y-56164169D02*
X180939145Y-56164169D01*
X181011716Y-56889883D01*
X180939145Y-56817311D01*
X180794002Y-56744740D01*
X180431145Y-56744740D01*
X180286002Y-56817311D01*
X180213431Y-56889883D01*
X180140859Y-57035026D01*
X180140859Y-57397883D01*
X180213431Y-57543026D01*
X180286002Y-57615597D01*
X180431145Y-57688169D01*
X180794002Y-57688169D01*
X180939145Y-57615597D01*
X181011716Y-57543026D01*
X179560287Y-56309311D02*
X179487716Y-56236740D01*
X179342573Y-56164169D01*
X178979716Y-56164169D01*
X178834573Y-56236740D01*
X178762002Y-56309311D01*
X178689430Y-56454454D01*
X178689430Y-56599597D01*
X178762002Y-56817311D01*
X179632859Y-57688169D01*
X178689430Y-57688169D01*
X177383144Y-56164169D02*
X177673430Y-56164169D01*
X177818573Y-56236740D01*
X177891144Y-56309311D01*
X178036287Y-56527026D01*
X178108858Y-56817311D01*
X178108858Y-57397883D01*
X178036287Y-57543026D01*
X177963715Y-57615597D01*
X177818573Y-57688169D01*
X177528287Y-57688169D01*
X177383144Y-57615597D01*
X177310573Y-57543026D01*
X177238001Y-57397883D01*
X177238001Y-57035026D01*
X177310573Y-56889883D01*
X177383144Y-56817311D01*
X177528287Y-56744740D01*
X177818573Y-56744740D01*
X177963715Y-56817311D01*
X178036287Y-56889883D01*
X178108858Y-57035026D01*
X176294572Y-56164169D02*
X176149429Y-56164169D01*
X176004286Y-56236740D01*
X175931715Y-56309311D01*
X175859144Y-56454454D01*
X175786572Y-56744740D01*
X175786572Y-57107597D01*
X175859144Y-57397883D01*
X175931715Y-57543026D01*
X176004286Y-57615597D01*
X176149429Y-57688169D01*
X176294572Y-57688169D01*
X176439715Y-57615597D01*
X176512286Y-57543026D01*
X176584858Y-57397883D01*
X176657429Y-57107597D01*
X176657429Y-56744740D01*
X176584858Y-56454454D01*
X176512286Y-56309311D01*
X176439715Y-56236740D01*
X176294572Y-56164169D01*
X175206000Y-56309311D02*
X175133429Y-56236740D01*
X174988286Y-56164169D01*
X174625429Y-56164169D01*
X174480286Y-56236740D01*
X174407715Y-56309311D01*
X174335143Y-56454454D01*
X174335143Y-56599597D01*
X174407715Y-56817311D01*
X175278572Y-57688169D01*
X174335143Y-57688169D01*
X174044857Y-57833311D02*
X172883714Y-57833311D01*
X172230571Y-56164169D02*
X172085428Y-56164169D01*
X171940285Y-56236740D01*
X171867714Y-56309311D01*
X171795143Y-56454454D01*
X171722571Y-56744740D01*
X171722571Y-57107597D01*
X171795143Y-57397883D01*
X171867714Y-57543026D01*
X171940285Y-57615597D01*
X172085428Y-57688169D01*
X172230571Y-57688169D01*
X172375714Y-57615597D01*
X172448285Y-57543026D01*
X172520857Y-57397883D01*
X172593428Y-57107597D01*
X172593428Y-56744740D01*
X172520857Y-56454454D01*
X172448285Y-56309311D01*
X172375714Y-56236740D01*
X172230571Y-56164169D01*
X170343714Y-56164169D02*
X171069428Y-56164169D01*
X171141999Y-56889883D01*
X171069428Y-56817311D01*
X170924285Y-56744740D01*
X170561428Y-56744740D01*
X170416285Y-56817311D01*
X170343714Y-56889883D01*
X170271142Y-57035026D01*
X170271142Y-57397883D01*
X170343714Y-57543026D01*
X170416285Y-57615597D01*
X170561428Y-57688169D01*
X170924285Y-57688169D01*
X171069428Y-57615597D01*
X171141999Y-57543026D01*
X169763142Y-56164169D02*
X168747142Y-56164169D01*
X169400285Y-57688169D01*
X168093998Y-57688169D02*
X167803713Y-57688169D01*
X167658570Y-57615597D01*
X167585998Y-57543026D01*
X167440856Y-57325311D01*
X167368284Y-57035026D01*
X167368284Y-56454454D01*
X167440856Y-56309311D01*
X167513427Y-56236740D01*
X167658570Y-56164169D01*
X167948856Y-56164169D01*
X168093998Y-56236740D01*
X168166570Y-56309311D01*
X168239141Y-56454454D01*
X168239141Y-56817311D01*
X168166570Y-56962454D01*
X168093998Y-57035026D01*
X167948856Y-57107597D01*
X167658570Y-57107597D01*
X167513427Y-57035026D01*
X167440856Y-56962454D01*
X167368284Y-56817311D01*
D10*
X128461905Y-116792381D02*
X127890476Y-116792381D01*
X128176191Y-117792381D02*
X128176191Y-116792381D01*
X127557143Y-117792381D02*
X127557143Y-116792381D01*
X127176190Y-116792381D01*
X127080952Y-116840000D01*
X127033333Y-116887619D01*
X126985714Y-116982857D01*
X126985714Y-117125714D01*
X127033333Y-117220952D01*
X127080952Y-117268571D01*
X127176190Y-117316190D01*
X127557143Y-117316190D01*
X126080952Y-116792381D02*
X126557143Y-116792381D01*
X126604762Y-117268571D01*
X126557143Y-117220952D01*
X126461905Y-117173333D01*
X126223809Y-117173333D01*
X126128571Y-117220952D01*
X126080952Y-117268571D01*
X126033333Y-117363810D01*
X126033333Y-117601905D01*
X126080952Y-117697143D01*
X126128571Y-117744762D01*
X126223809Y-117792381D01*
X126461905Y-117792381D01*
X126557143Y-117744762D01*
X126604762Y-117697143D01*
X135861905Y-121292381D02*
X135290476Y-121292381D01*
X135576191Y-122292381D02*
X135576191Y-121292381D01*
X134957143Y-122292381D02*
X134957143Y-121292381D01*
X134576190Y-121292381D01*
X134480952Y-121340000D01*
X134433333Y-121387619D01*
X134385714Y-121482857D01*
X134385714Y-121625714D01*
X134433333Y-121720952D01*
X134480952Y-121768571D01*
X134576190Y-121816190D01*
X134957143Y-121816190D01*
X133528571Y-121625714D02*
X133528571Y-122292381D01*
X133766667Y-121244762D02*
X134004762Y-121959048D01*
X133385714Y-121959048D01*
X140661905Y-60752381D02*
X140090476Y-60752381D01*
X140376191Y-61752381D02*
X140376191Y-60752381D01*
X139757143Y-61752381D02*
X139757143Y-60752381D01*
X139376190Y-60752381D01*
X139280952Y-60800000D01*
X139233333Y-60847619D01*
X139185714Y-60942857D01*
X139185714Y-61085714D01*
X139233333Y-61180952D01*
X139280952Y-61228571D01*
X139376190Y-61276190D01*
X139757143Y-61276190D01*
X138804762Y-60847619D02*
X138757143Y-60800000D01*
X138661905Y-60752381D01*
X138423809Y-60752381D01*
X138328571Y-60800000D01*
X138280952Y-60847619D01*
X138233333Y-60942857D01*
X138233333Y-61038095D01*
X138280952Y-61180952D01*
X138852381Y-61752381D01*
X138233333Y-61752381D01*
M02*
