M48
;DRILL file {KiCad no-vcs-found-product} date Sat 05 Dec 2015 15:20:57 CET
;FORMAT={-:-/ absolute / inch / decimal}
FMAT,2
INCH,TZ
T1C0.025
T2C0.031
T3C0.032
T4C0.039
T5C0.039
T6C0.079
%
G90
G05
M72
T1
X5.2047Y-4.0433
X5.7638Y-2.3583
X6.0079Y-3.7165
X6.0551Y-3.7913
X6.1811Y-2.2598
X6.2047Y-3.8071
X6.2205Y-2.4567
X6.2559Y-3.9016
X6.2598Y-2.4291
X6.2992Y-2.4567
X6.3386Y-2.4291
X6.378Y-2.4567
X6.4173Y-2.4291
X6.4567Y-2.4567
X6.4961Y-2.4291
X6.5039Y-3.8583
X6.5354Y-2.4567
X6.5551Y-3.9449
X6.5748Y-2.4291
X6.6142Y-2.4567
X6.6535Y-2.4291
X6.6929Y-2.4567
X6.7047Y-3.9528
X6.7323Y-2.4291
X6.7559Y-4.0551
X6.7717Y-2.4567
X6.811Y-2.2795
X6.8504Y-2.4567
X6.8898Y-2.4291
X6.9291Y-2.4567
X6.9685Y-2.4291
X7.0079Y-2.2795
X7.0354Y-3.622
X7.0472Y-2.4291
X7.0866Y-2.2795
T2
X5.3504Y-4.4291
X5.3504Y-4.5079
X5.4291Y-4.4291
X5.4291Y-4.5079
X5.5079Y-4.4291
X5.5079Y-4.5079
X5.5866Y-4.4291
X5.5866Y-4.5079
X5.6654Y-4.4291
X5.6654Y-4.5079
X5.7441Y-4.4291
X5.7441Y-4.5079
X5.8228Y-4.4291
X5.8228Y-4.5079
X5.9016Y-4.4291
X5.9016Y-4.5079
X5.9803Y-4.4291
X5.9803Y-4.5079
X6.0591Y-4.4291
X6.0591Y-4.5079
X6.1378Y-4.4291
X6.1378Y-4.5079
X6.2165Y-4.4291
X6.2165Y-4.5079
X6.2953Y-4.4291
X6.2953Y-4.5079
X6.374Y-4.4291
X6.374Y-4.5079
X6.4528Y-4.4291
X6.4528Y-4.5079
X6.5315Y-4.4291
X6.5315Y-4.5079
X6.6102Y-4.4291
X6.6102Y-4.5079
X6.689Y-4.4291
X6.689Y-4.5079
X6.7677Y-4.4291
X6.7677Y-4.5079
X6.8465Y-4.4291
X6.8465Y-4.5079
X6.9252Y-4.4291
X6.9252Y-4.5079
X7.0039Y-4.4291
X7.0039Y-4.5079
T3
X4.815Y-4.328
X4.815Y-4.428
T4
X4.7055Y-3.3752
X4.7055Y-3.4752
X4.8055Y-3.3752
X4.8055Y-3.4752
X4.9055Y-3.3752
X4.9055Y-3.4752
X5.0055Y-3.3752
X5.0055Y-3.4752
X5.1055Y-3.3752
X5.1055Y-3.4752
X5.2055Y-3.3752
X5.2055Y-3.4752
X5.3055Y-3.3752
X5.3055Y-3.4752
X5.4055Y-3.3752
X5.4055Y-3.4752
X5.5055Y-3.3752
X5.5055Y-3.4752
X5.6055Y-3.3752
X5.6055Y-3.4752
X5.7055Y-3.3752
X5.7055Y-3.4752
X5.8055Y-3.3752
X5.8055Y-3.4752
X5.9055Y-3.3752
X5.9055Y-3.4752
X6.0055Y-3.3752
X6.0055Y-3.4752
X6.1055Y-3.3752
X6.1055Y-3.4752
X6.2055Y-3.3752
X6.2055Y-3.4752
X6.3055Y-3.3752
X6.3055Y-3.4752
X6.4055Y-3.3752
X6.4055Y-3.4752
X6.5055Y-3.3752
X6.5055Y-3.4752
X6.6055Y-3.3752
X6.6055Y-3.4752
X6.7055Y-3.3752
X6.7055Y-3.4752
X6.8055Y-3.3752
X6.8055Y-3.4752
X6.9055Y-3.3752
X6.9055Y-3.4752
X7.0055Y-3.3752
X7.0055Y-3.4752
X7.1055Y-3.3752
X7.1055Y-3.4752
T5
X4.815Y-4.1299
X4.915Y-4.1299
T6
X6.0532Y-2.4409
X7.1752Y-2.4409
T0
M30
