G04 #@! TF.FileFunction,Legend,Top*
%FSLAX46Y46*%
G04 Gerber Fmt 4.6, Leading zero omitted, Abs format (unit mm)*
G04 Created by KiCad (PCBNEW no-vcs-found-product) date Sat 05 Dec 2015 15:20:37 CET*
%MOMM*%
G01*
G04 APERTURE LIST*
%ADD10C,0.150000*%
%ADD11C,0.304800*%
%ADD12C,0.299720*%
%ADD13C,0.203200*%
G04 APERTURE END LIST*
D10*
D11*
X178480572Y-108767810D02*
X178480572Y-108671048D01*
X178408001Y-108961333D02*
X178408001Y-108671048D01*
X178335429Y-109154857D02*
X178335429Y-108671048D01*
X178262858Y-109348381D02*
X178262858Y-108671048D01*
X178190286Y-109445143D02*
X178190286Y-108671048D01*
X178117715Y-109638667D02*
X178117715Y-108671048D01*
X178045143Y-109832190D02*
X178045143Y-108671048D01*
X177972572Y-110025714D02*
X177972572Y-108671048D01*
X177900001Y-110219238D02*
X177900001Y-108671048D01*
X177827429Y-110025714D02*
X177827429Y-108671048D01*
X177754858Y-109832190D02*
X177754858Y-108671048D01*
X177682286Y-109638667D02*
X177682286Y-108671048D01*
X177609715Y-109445143D02*
X177609715Y-108671048D01*
X177537143Y-109348381D02*
X177537143Y-108671048D01*
X177464572Y-109154857D02*
X177464572Y-108671048D01*
X177392001Y-108961333D02*
X177392001Y-108671048D01*
X177319429Y-108671048D02*
X177900001Y-110122476D01*
X178480572Y-108671048D01*
X177319429Y-108767810D02*
X177319429Y-108671048D01*
X177900001Y-110219238D02*
X177246858Y-108671048D01*
X178553143Y-108671048D01*
X177900001Y-110219238D01*
X181080572Y-79667810D02*
X181080572Y-79571048D01*
X181008001Y-79861333D02*
X181008001Y-79571048D01*
X180935429Y-80054857D02*
X180935429Y-79571048D01*
X180862858Y-80248381D02*
X180862858Y-79571048D01*
X180790286Y-80345143D02*
X180790286Y-79571048D01*
X180717715Y-80538667D02*
X180717715Y-79571048D01*
X180645143Y-80732190D02*
X180645143Y-79571048D01*
X180572572Y-80925714D02*
X180572572Y-79571048D01*
X180500001Y-81119238D02*
X180500001Y-79571048D01*
X180427429Y-80925714D02*
X180427429Y-79571048D01*
X180354858Y-80732190D02*
X180354858Y-79571048D01*
X180282286Y-80538667D02*
X180282286Y-79571048D01*
X180209715Y-80345143D02*
X180209715Y-79571048D01*
X180137143Y-80248381D02*
X180137143Y-79571048D01*
X180064572Y-80054857D02*
X180064572Y-79571048D01*
X179992001Y-79861333D02*
X179992001Y-79571048D01*
X179919429Y-79571048D02*
X180500001Y-81022476D01*
X181080572Y-79571048D01*
X179919429Y-79667810D02*
X179919429Y-79571048D01*
X180500001Y-81119238D02*
X179846858Y-79571048D01*
X181153143Y-79571048D01*
X180500001Y-81119238D01*
X120282857Y-95419238D02*
X120282857Y-93387238D01*
X121153714Y-95419238D01*
X121153714Y-93387238D01*
X122097142Y-95419238D02*
X121952000Y-95322476D01*
X121879428Y-95225714D01*
X121806857Y-95032190D01*
X121806857Y-94451619D01*
X121879428Y-94258095D01*
X121952000Y-94161333D01*
X122097142Y-94064571D01*
X122314857Y-94064571D01*
X122460000Y-94161333D01*
X122532571Y-94258095D01*
X122605142Y-94451619D01*
X122605142Y-95032190D01*
X122532571Y-95225714D01*
X122460000Y-95322476D01*
X122314857Y-95419238D01*
X122097142Y-95419238D01*
X123040571Y-94064571D02*
X123621142Y-94064571D01*
X123258285Y-93387238D02*
X123258285Y-95128952D01*
X123330857Y-95322476D01*
X123475999Y-95419238D01*
X123621142Y-95419238D01*
X125217714Y-95322476D02*
X125435428Y-95419238D01*
X125798285Y-95419238D01*
X125943428Y-95322476D01*
X126015999Y-95225714D01*
X126088571Y-95032190D01*
X126088571Y-94838667D01*
X126015999Y-94645143D01*
X125943428Y-94548381D01*
X125798285Y-94451619D01*
X125507999Y-94354857D01*
X125362857Y-94258095D01*
X125290285Y-94161333D01*
X125217714Y-93967810D01*
X125217714Y-93774286D01*
X125290285Y-93580762D01*
X125362857Y-93484000D01*
X125507999Y-93387238D01*
X125870857Y-93387238D01*
X126088571Y-93484000D01*
X127612571Y-95225714D02*
X127540000Y-95322476D01*
X127322286Y-95419238D01*
X127177143Y-95419238D01*
X126959428Y-95322476D01*
X126814286Y-95128952D01*
X126741714Y-94935429D01*
X126669143Y-94548381D01*
X126669143Y-94258095D01*
X126741714Y-93871048D01*
X126814286Y-93677524D01*
X126959428Y-93484000D01*
X127177143Y-93387238D01*
X127322286Y-93387238D01*
X127540000Y-93484000D01*
X127612571Y-93580762D01*
X128193143Y-95322476D02*
X128410857Y-95419238D01*
X128773714Y-95419238D01*
X128918857Y-95322476D01*
X128991428Y-95225714D01*
X129064000Y-95032190D01*
X129064000Y-94838667D01*
X128991428Y-94645143D01*
X128918857Y-94548381D01*
X128773714Y-94451619D01*
X128483428Y-94354857D01*
X128338286Y-94258095D01*
X128265714Y-94161333D01*
X128193143Y-93967810D01*
X128193143Y-93774286D01*
X128265714Y-93580762D01*
X128338286Y-93484000D01*
X128483428Y-93387238D01*
X128846286Y-93387238D01*
X129064000Y-93484000D01*
X129717143Y-95419238D02*
X129717143Y-93387238D01*
X137700571Y-119019238D02*
X137700571Y-116987238D01*
X138426285Y-119019238D02*
X138426285Y-116987238D01*
X138789142Y-116987238D01*
X139006857Y-117084000D01*
X139151999Y-117277524D01*
X139224571Y-117471048D01*
X139297142Y-117858095D01*
X139297142Y-118148381D01*
X139224571Y-118535429D01*
X139151999Y-118728952D01*
X139006857Y-118922476D01*
X138789142Y-119019238D01*
X138426285Y-119019238D01*
X139950285Y-117954857D02*
X140458285Y-117954857D01*
X140675999Y-119019238D02*
X139950285Y-119019238D01*
X139950285Y-116987238D01*
X140675999Y-116987238D01*
X142345142Y-116987238D02*
X143288571Y-116987238D01*
X142780571Y-117761333D01*
X142998285Y-117761333D01*
X143143428Y-117858095D01*
X143215999Y-117954857D01*
X143288571Y-118148381D01*
X143288571Y-118632190D01*
X143215999Y-118825714D01*
X143143428Y-118922476D01*
X142998285Y-119019238D01*
X142562857Y-119019238D01*
X142417714Y-118922476D01*
X142345142Y-118825714D01*
X143941714Y-118825714D02*
X144014286Y-118922476D01*
X143941714Y-119019238D01*
X143869143Y-118922476D01*
X143941714Y-118825714D01*
X143941714Y-119019238D01*
X144522285Y-116987238D02*
X145465714Y-116987238D01*
X144957714Y-117761333D01*
X145175428Y-117761333D01*
X145320571Y-117858095D01*
X145393142Y-117954857D01*
X145465714Y-118148381D01*
X145465714Y-118632190D01*
X145393142Y-118825714D01*
X145320571Y-118922476D01*
X145175428Y-119019238D01*
X144740000Y-119019238D01*
X144594857Y-118922476D01*
X144522285Y-118825714D01*
X145901143Y-116987238D02*
X146409143Y-119019238D01*
X146917143Y-116987238D01*
X221867505Y-83976570D02*
X221964267Y-83831428D01*
X222061029Y-83758856D01*
X222254552Y-83686285D01*
X222351314Y-83686285D01*
X222544838Y-83758856D01*
X222641600Y-83831428D01*
X222738362Y-83976570D01*
X222738362Y-84266856D01*
X222641600Y-84411999D01*
X222544838Y-84484570D01*
X222351314Y-84557142D01*
X222254552Y-84557142D01*
X222061029Y-84484570D01*
X221964267Y-84411999D01*
X221867505Y-84266856D01*
X221867505Y-83976570D01*
X221770743Y-83831428D01*
X221673981Y-83758856D01*
X221480457Y-83686285D01*
X221093410Y-83686285D01*
X220899886Y-83758856D01*
X220803124Y-83831428D01*
X220706362Y-83976570D01*
X220706362Y-84266856D01*
X220803124Y-84411999D01*
X220899886Y-84484570D01*
X221093410Y-84557142D01*
X221480457Y-84557142D01*
X221673981Y-84484570D01*
X221770743Y-84411999D01*
X221867505Y-84266856D01*
X222738362Y-85500571D02*
X222738362Y-85645714D01*
X222641600Y-85790857D01*
X222544838Y-85863428D01*
X222351314Y-85935999D01*
X221964267Y-86008571D01*
X221480457Y-86008571D01*
X221093410Y-85935999D01*
X220899886Y-85863428D01*
X220803124Y-85790857D01*
X220706362Y-85645714D01*
X220706362Y-85500571D01*
X220803124Y-85355428D01*
X220899886Y-85282857D01*
X221093410Y-85210285D01*
X221480457Y-85137714D01*
X221964267Y-85137714D01*
X222351314Y-85210285D01*
X222544838Y-85282857D01*
X222641600Y-85355428D01*
X222738362Y-85500571D01*
X220803124Y-86734286D02*
X220706362Y-86734286D01*
X220512838Y-86661714D01*
X220416076Y-86589143D01*
X222738362Y-87677714D02*
X222738362Y-87822857D01*
X222641600Y-87968000D01*
X222544838Y-88040571D01*
X222351314Y-88113142D01*
X221964267Y-88185714D01*
X221480457Y-88185714D01*
X221093410Y-88113142D01*
X220899886Y-88040571D01*
X220803124Y-87968000D01*
X220706362Y-87822857D01*
X220706362Y-87677714D01*
X220803124Y-87532571D01*
X220899886Y-87460000D01*
X221093410Y-87387428D01*
X221480457Y-87314857D01*
X221964267Y-87314857D01*
X222351314Y-87387428D01*
X222544838Y-87460000D01*
X222641600Y-87532571D01*
X222738362Y-87677714D01*
X222738362Y-89129143D02*
X222738362Y-89274286D01*
X222641600Y-89419429D01*
X222544838Y-89492000D01*
X222351314Y-89564571D01*
X221964267Y-89637143D01*
X221480457Y-89637143D01*
X221093410Y-89564571D01*
X220899886Y-89492000D01*
X220803124Y-89419429D01*
X220706362Y-89274286D01*
X220706362Y-89129143D01*
X220803124Y-88984000D01*
X220899886Y-88911429D01*
X221093410Y-88838857D01*
X221480457Y-88766286D01*
X221964267Y-88766286D01*
X222351314Y-88838857D01*
X222544838Y-88911429D01*
X222641600Y-88984000D01*
X222738362Y-89129143D01*
X222738362Y-90580572D02*
X222738362Y-90725715D01*
X222641600Y-90870858D01*
X222544838Y-90943429D01*
X222351314Y-91016000D01*
X221964267Y-91088572D01*
X221480457Y-91088572D01*
X221093410Y-91016000D01*
X220899886Y-90943429D01*
X220803124Y-90870858D01*
X220706362Y-90725715D01*
X220706362Y-90580572D01*
X220803124Y-90435429D01*
X220899886Y-90362858D01*
X221093410Y-90290286D01*
X221480457Y-90217715D01*
X221964267Y-90217715D01*
X222351314Y-90290286D01*
X222544838Y-90362858D01*
X222641600Y-90435429D01*
X222738362Y-90580572D01*
X220706362Y-92902858D02*
X222061029Y-92902858D01*
X221867505Y-92902858D02*
X221964267Y-92975430D01*
X222061029Y-93120572D01*
X222061029Y-93338287D01*
X221964267Y-93483430D01*
X221770743Y-93556001D01*
X220706362Y-93556001D01*
X221770743Y-93556001D02*
X221964267Y-93628572D01*
X222061029Y-93773715D01*
X222061029Y-93991430D01*
X221964267Y-94136572D01*
X221770743Y-94209144D01*
X220706362Y-94209144D01*
X220706362Y-94934858D02*
X222061029Y-94934858D01*
X221867505Y-94934858D02*
X221964267Y-95007430D01*
X222061029Y-95152572D01*
X222061029Y-95370287D01*
X221964267Y-95515430D01*
X221770743Y-95588001D01*
X220706362Y-95588001D01*
X221770743Y-95588001D02*
X221964267Y-95660572D01*
X222061029Y-95805715D01*
X222061029Y-96023430D01*
X221964267Y-96168572D01*
X221770743Y-96241144D01*
X220706362Y-96241144D01*
X220000000Y-50000000D02*
X220000000Y-130000000D01*
X210000000Y-50000000D02*
X223251200Y-50000000D01*
X210000000Y-130000000D02*
X223251200Y-130000000D01*
X220000000Y-130000000D02*
X219413579Y-128873496D01*
X220000000Y-130000000D02*
X220586421Y-128873496D01*
X220000000Y-50000000D02*
X219413579Y-51126504D01*
X220000000Y-50000000D02*
X220586421Y-51126504D01*
X143831428Y-34293638D02*
X142960571Y-34293638D01*
X143395999Y-34293638D02*
X143395999Y-32261638D01*
X143250856Y-32551924D01*
X143105714Y-32745448D01*
X142960571Y-32842210D01*
X144774857Y-32261638D02*
X144920000Y-32261638D01*
X145065143Y-32358400D01*
X145137714Y-32455162D01*
X145210285Y-32648686D01*
X145282857Y-33035733D01*
X145282857Y-33519543D01*
X145210285Y-33906590D01*
X145137714Y-34100114D01*
X145065143Y-34196876D01*
X144920000Y-34293638D01*
X144774857Y-34293638D01*
X144629714Y-34196876D01*
X144557143Y-34100114D01*
X144484571Y-33906590D01*
X144412000Y-33519543D01*
X144412000Y-33035733D01*
X144484571Y-32648686D01*
X144557143Y-32455162D01*
X144629714Y-32358400D01*
X144774857Y-32261638D01*
X146226286Y-32261638D02*
X146371429Y-32261638D01*
X146516572Y-32358400D01*
X146589143Y-32455162D01*
X146661714Y-32648686D01*
X146734286Y-33035733D01*
X146734286Y-33519543D01*
X146661714Y-33906590D01*
X146589143Y-34100114D01*
X146516572Y-34196876D01*
X146371429Y-34293638D01*
X146226286Y-34293638D01*
X146081143Y-34196876D01*
X146008572Y-34100114D01*
X145936000Y-33906590D01*
X145863429Y-33519543D01*
X145863429Y-33035733D01*
X145936000Y-32648686D01*
X146008572Y-32455162D01*
X146081143Y-32358400D01*
X146226286Y-32261638D01*
X147460001Y-34196876D02*
X147460001Y-34293638D01*
X147387429Y-34487162D01*
X147314858Y-34583924D01*
X148403429Y-32261638D02*
X148548572Y-32261638D01*
X148693715Y-32358400D01*
X148766286Y-32455162D01*
X148838857Y-32648686D01*
X148911429Y-33035733D01*
X148911429Y-33519543D01*
X148838857Y-33906590D01*
X148766286Y-34100114D01*
X148693715Y-34196876D01*
X148548572Y-34293638D01*
X148403429Y-34293638D01*
X148258286Y-34196876D01*
X148185715Y-34100114D01*
X148113143Y-33906590D01*
X148040572Y-33519543D01*
X148040572Y-33035733D01*
X148113143Y-32648686D01*
X148185715Y-32455162D01*
X148258286Y-32358400D01*
X148403429Y-32261638D01*
X149854858Y-32261638D02*
X150000001Y-32261638D01*
X150145144Y-32358400D01*
X150217715Y-32455162D01*
X150290286Y-32648686D01*
X150362858Y-33035733D01*
X150362858Y-33519543D01*
X150290286Y-33906590D01*
X150217715Y-34100114D01*
X150145144Y-34196876D01*
X150000001Y-34293638D01*
X149854858Y-34293638D01*
X149709715Y-34196876D01*
X149637144Y-34100114D01*
X149564572Y-33906590D01*
X149492001Y-33519543D01*
X149492001Y-33035733D01*
X149564572Y-32648686D01*
X149637144Y-32455162D01*
X149709715Y-32358400D01*
X149854858Y-32261638D01*
X151306287Y-32261638D02*
X151451430Y-32261638D01*
X151596573Y-32358400D01*
X151669144Y-32455162D01*
X151741715Y-32648686D01*
X151814287Y-33035733D01*
X151814287Y-33519543D01*
X151741715Y-33906590D01*
X151669144Y-34100114D01*
X151596573Y-34196876D01*
X151451430Y-34293638D01*
X151306287Y-34293638D01*
X151161144Y-34196876D01*
X151088573Y-34100114D01*
X151016001Y-33906590D01*
X150943430Y-33519543D01*
X150943430Y-33035733D01*
X151016001Y-32648686D01*
X151088573Y-32455162D01*
X151161144Y-32358400D01*
X151306287Y-32261638D01*
X153628573Y-34293638D02*
X153628573Y-32938971D01*
X153628573Y-33132495D02*
X153701145Y-33035733D01*
X153846287Y-32938971D01*
X154064002Y-32938971D01*
X154209145Y-33035733D01*
X154281716Y-33229257D01*
X154281716Y-34293638D01*
X154281716Y-33229257D02*
X154354287Y-33035733D01*
X154499430Y-32938971D01*
X154717145Y-32938971D01*
X154862287Y-33035733D01*
X154934859Y-33229257D01*
X154934859Y-34293638D01*
X155660573Y-34293638D02*
X155660573Y-32938971D01*
X155660573Y-33132495D02*
X155733145Y-33035733D01*
X155878287Y-32938971D01*
X156096002Y-32938971D01*
X156241145Y-33035733D01*
X156313716Y-33229257D01*
X156313716Y-34293638D01*
X156313716Y-33229257D02*
X156386287Y-33035733D01*
X156531430Y-32938971D01*
X156749145Y-32938971D01*
X156894287Y-33035733D01*
X156966859Y-33229257D01*
X156966859Y-34293638D01*
X100000000Y-35000000D02*
X200000000Y-35000000D01*
X100000000Y-45000000D02*
X100000000Y-31748800D01*
X200000000Y-45000000D02*
X200000000Y-31748800D01*
X200000000Y-35000000D02*
X198873496Y-35586421D01*
X200000000Y-35000000D02*
X198873496Y-34413579D01*
X100000000Y-35000000D02*
X101126504Y-35586421D01*
X100000000Y-35000000D02*
X101126504Y-34413579D01*
X178900000Y-113500000D02*
X176900000Y-113500000D01*
X134900000Y-115500000D02*
X134900000Y-111500000D01*
X134900000Y-111500000D02*
X178900000Y-111500000D01*
X178900000Y-115500000D02*
X134900000Y-115500000D01*
X178900000Y-111500000D02*
X178900000Y-115500000D01*
X176900000Y-113500000D02*
X176900000Y-111500000D01*
X185800000Y-82300000D02*
X114200000Y-82300000D01*
X114200000Y-91700000D02*
X185800000Y-91700000D01*
X185800000Y-91700000D02*
X185800000Y-82300000D01*
X114200000Y-91700000D02*
X114200000Y-82300000D01*
D12*
X147700000Y-82300000D02*
X147700000Y-83700000D01*
X147700000Y-83700000D02*
X152300000Y-83700000D01*
X152300000Y-83700000D02*
X152300000Y-82300000D01*
D10*
X122101000Y-106214000D02*
X122101000Y-106014000D01*
X122101000Y-103620000D02*
X122101000Y-103800000D01*
X125328744Y-103930357D02*
G75*
G03X122101000Y-103614000I-1727744J-1003643D01*
G01*
X124653006Y-103800932D02*
G75*
G03X122550000Y-103800000I-1052006J-1133068D01*
G01*
X122113780Y-106240726D02*
G75*
G03X125351000Y-105894000I1497220J1306726D01*
G01*
X122587111Y-106013253D02*
G75*
G03X124635000Y-105994000I1013889J1079253D01*
G01*
X122300000Y-112470000D02*
X122300000Y-109930000D01*
X123719903Y-112470000D02*
G75*
G03X123719903Y-112470000I-1419903J0D01*
G01*
D13*
X156198476Y-116862857D02*
X156150095Y-116911238D01*
X156004952Y-116959619D01*
X155908190Y-116959619D01*
X155763048Y-116911238D01*
X155666286Y-116814476D01*
X155617905Y-116717714D01*
X155569524Y-116524190D01*
X155569524Y-116379048D01*
X155617905Y-116185524D01*
X155666286Y-116088762D01*
X155763048Y-115992000D01*
X155908190Y-115943619D01*
X156004952Y-115943619D01*
X156150095Y-115992000D01*
X156198476Y-116040381D01*
X156633905Y-116959619D02*
X156633905Y-115943619D01*
X157214476Y-116959619D01*
X157214476Y-115943619D01*
X157601524Y-115943619D02*
X158230476Y-115943619D01*
X157891810Y-116330667D01*
X158036952Y-116330667D01*
X158133714Y-116379048D01*
X158182095Y-116427429D01*
X158230476Y-116524190D01*
X158230476Y-116766095D01*
X158182095Y-116862857D01*
X158133714Y-116911238D01*
X158036952Y-116959619D01*
X157746667Y-116959619D01*
X157649905Y-116911238D01*
X157601524Y-116862857D01*
X149309524Y-93057143D02*
X149261905Y-93104762D01*
X149119048Y-93152381D01*
X149023810Y-93152381D01*
X148880952Y-93104762D01*
X148785714Y-93009524D01*
X148738095Y-92914286D01*
X148690476Y-92723810D01*
X148690476Y-92580952D01*
X148738095Y-92390476D01*
X148785714Y-92295238D01*
X148880952Y-92200000D01*
X149023810Y-92152381D01*
X149119048Y-92152381D01*
X149261905Y-92200000D01*
X149309524Y-92247619D01*
X149738095Y-93152381D02*
X149738095Y-92152381D01*
X150309524Y-93152381D01*
X150309524Y-92152381D01*
X150738095Y-92247619D02*
X150785714Y-92200000D01*
X150880952Y-92152381D01*
X151119048Y-92152381D01*
X151214286Y-92200000D01*
X151261905Y-92247619D01*
X151309524Y-92342857D01*
X151309524Y-92438095D01*
X151261905Y-92580952D01*
X150690476Y-93152381D01*
X151309524Y-93152381D01*
D10*
X132838095Y-106012381D02*
X133409524Y-106012381D01*
X133123809Y-107012381D02*
X133123809Y-106012381D01*
X133742857Y-107012381D02*
X133742857Y-106012381D01*
X134123810Y-106012381D01*
X134219048Y-106060000D01*
X134266667Y-106107619D01*
X134314286Y-106202857D01*
X134314286Y-106345714D01*
X134266667Y-106440952D01*
X134219048Y-106488571D01*
X134123810Y-106536190D01*
X133742857Y-106536190D01*
X134647619Y-106012381D02*
X135266667Y-106012381D01*
X134933333Y-106393333D01*
X135076191Y-106393333D01*
X135171429Y-106440952D01*
X135219048Y-106488571D01*
X135266667Y-106583810D01*
X135266667Y-106821905D01*
X135219048Y-106917143D01*
X135171429Y-106964762D01*
X135076191Y-107012381D01*
X134790476Y-107012381D01*
X134695238Y-106964762D01*
X134647619Y-106917143D01*
X138038095Y-63352381D02*
X138609524Y-63352381D01*
X138323809Y-64352381D02*
X138323809Y-63352381D01*
X138942857Y-64352381D02*
X138942857Y-63352381D01*
X139323810Y-63352381D01*
X139419048Y-63400000D01*
X139466667Y-63447619D01*
X139514286Y-63542857D01*
X139514286Y-63685714D01*
X139466667Y-63780952D01*
X139419048Y-63828571D01*
X139323810Y-63876190D01*
X138942857Y-63876190D01*
X139895238Y-63447619D02*
X139942857Y-63400000D01*
X140038095Y-63352381D01*
X140276191Y-63352381D01*
X140371429Y-63400000D01*
X140419048Y-63447619D01*
X140466667Y-63542857D01*
X140466667Y-63638095D01*
X140419048Y-63780952D01*
X139847619Y-64352381D01*
X140466667Y-64352381D01*
X126661905Y-105352381D02*
X126661905Y-104352381D01*
X126900000Y-104352381D01*
X127042858Y-104400000D01*
X127138096Y-104495238D01*
X127185715Y-104590476D01*
X127233334Y-104780952D01*
X127233334Y-104923810D01*
X127185715Y-105114286D01*
X127138096Y-105209524D01*
X127042858Y-105304762D01*
X126900000Y-105352381D01*
X126661905Y-105352381D01*
X128185715Y-105352381D02*
X127614286Y-105352381D01*
X127900000Y-105352381D02*
X127900000Y-104352381D01*
X127804762Y-104495238D01*
X127709524Y-104590476D01*
X127614286Y-104638095D01*
X120348095Y-107092381D02*
X120348095Y-106092381D01*
X120919524Y-107092381D02*
X120490952Y-106520952D01*
X120919524Y-106092381D02*
X120348095Y-106663810D01*
X122752381Y-115266666D02*
X122276190Y-115600000D01*
X122752381Y-115838095D02*
X121752381Y-115838095D01*
X121752381Y-115457142D01*
X121800000Y-115361904D01*
X121847619Y-115314285D01*
X121942857Y-115266666D01*
X122085714Y-115266666D01*
X122180952Y-115314285D01*
X122228571Y-115361904D01*
X122276190Y-115457142D01*
X122276190Y-115838095D01*
X122752381Y-114314285D02*
X122752381Y-114885714D01*
X122752381Y-114600000D02*
X121752381Y-114600000D01*
X121895238Y-114695238D01*
X121990476Y-114790476D01*
X122038095Y-114885714D01*
X123366667Y-61602101D02*
X123033333Y-61125910D01*
X122795238Y-61602101D02*
X122795238Y-60602101D01*
X123176191Y-60602101D01*
X123271429Y-60649720D01*
X123319048Y-60697339D01*
X123366667Y-60792577D01*
X123366667Y-60935434D01*
X123319048Y-61030672D01*
X123271429Y-61078291D01*
X123176191Y-61125910D01*
X122795238Y-61125910D01*
X123795238Y-61078291D02*
X124128572Y-61078291D01*
X124271429Y-61602101D02*
X123795238Y-61602101D01*
X123795238Y-60602101D01*
X124271429Y-60602101D01*
X125033334Y-61078291D02*
X124700000Y-61078291D01*
X124700000Y-61602101D02*
X124700000Y-60602101D01*
X125176191Y-60602101D01*
X125700000Y-60602101D02*
X125700000Y-60840196D01*
X125461905Y-60744958D02*
X125700000Y-60840196D01*
X125938096Y-60744958D01*
X125557143Y-61030672D02*
X125700000Y-60840196D01*
X125842858Y-61030672D01*
X126461905Y-60602101D02*
X126461905Y-60840196D01*
X126223810Y-60744958D02*
X126461905Y-60840196D01*
X126700001Y-60744958D01*
X126319048Y-61030672D02*
X126461905Y-60840196D01*
X126604763Y-61030672D01*
X117538095Y-98612381D02*
X118109524Y-98612381D01*
X117823809Y-99612381D02*
X117823809Y-98612381D01*
X118442857Y-99612381D02*
X118442857Y-98612381D01*
X118823810Y-98612381D01*
X118919048Y-98660000D01*
X118966667Y-98707619D01*
X119014286Y-98802857D01*
X119014286Y-98945714D01*
X118966667Y-99040952D01*
X118919048Y-99088571D01*
X118823810Y-99136190D01*
X118442857Y-99136190D01*
X119966667Y-99612381D02*
X119395238Y-99612381D01*
X119680952Y-99612381D02*
X119680952Y-98612381D01*
X119585714Y-98755238D01*
X119490476Y-98850476D01*
X119395238Y-98898095D01*
M02*
